SplineFontDB: 3.2
FontName: seg115extra
FullName: seg115extra
FamilyName: seg115extra
Weight: Regular
Copyright: Created by Keshikan(https://twitter.com/keshinomi_88pro)\nwith FontForge 2.0 (http://fontforge.sf.net)
UComments: "2014-8-31: Created."
Version: 0.46
ItalicAngle: 0
UnderlinePosition: -100
UnderlineWidth: 50
Ascent: 1000
Descent: 0
InvalidEm: 0
LayerCount: 2
Layer: 0 0 "+gMyXYgAA" 1
Layer: 1 0 "+Uk2XYgAA" 0
XUID: [1021 682 390630330 14528854]
FSType: 8
OS2Version: 0
OS2_WeightWidthSlopeOnly: 0
OS2_UseTypoMetrics: 1
CreationTime: 1409488158
ModificationTime: 1735885357
PfmFamily: 17
TTFWeight: 400
TTFWidth: 5
LineGap: 90
VLineGap: 0
OS2TypoAscent: 0
OS2TypoAOffset: 1
OS2TypoDescent: 0
OS2TypoDOffset: 1
OS2TypoLinegap: 90
OS2WinAscent: 0
OS2WinAOffset: 1
OS2WinDescent: 0
OS2WinDOffset: 1
HheadAscent: 0
HheadAOffset: 1
HheadDescent: 0
HheadDOffset: 1
OS2Vendor: 'PfEd'
MarkAttachClasses: 1
DEI: 91125

StartChar: Atilde
Encoding: 195 195 105
Width: 816
VWidth: 200
Flags: HW
LayerCount: 2
Fore
SplineSet
473 693 m 4
 473 684 471 676 468 669 c 4
 465 662 461 655 455 649 c 4
 449 643 442 639 435 636 c 4
 428 633 420 631 411 631 c 4
 402 631 394 633 387 636 c 4
 380 639 373 643 367 649 c 4
 361 655 357 662 354 669 c 4
 351 676 349 684 349 693 c 4
 349 702 351 710 354 717 c 4
 357 724 361 730 367 736 c 4
 373 742 380 747 387 750 c 4
 394 753 402 754 411 754 c 4
 420 754 428 753 435 750 c 4
 442 747 449 742 455 736 c 4
 461 730 465 724 468 717 c 4
 471 710 473 702 473 693 c 4
473 281 m 4
 473 272 471 264 468 257 c 4
 465 250 461 243 455 237 c 4
 449 231 442 227 435 224 c 4
 428 221 420 219 411 219 c 4
 402 219 394 221 387 224 c 4
 380 227 373 231 367 237 c 4
 361 243 357 250 354 257 c 4
 351 264 349 272 349 281 c 4
 349 290 351 298 354 305 c 4
 357 312 361 318 367 324 c 4
 373 330 380 335 387 338 c 4
 394 341 402 342 411 342 c 4
 420 342 428 341 435 338 c 4
 442 335 449 330 455 324 c 4
 461 318 465 312 468 305 c 4
 471 298 473 290 473 281 c 4
130 45 m 1
 99 76 l 1
 99 490 l 1
 126 490 l 1
 130 485 l 1
 192 424 l 1
 192 107 l 1
 130 45 l 1
130 515 m 1
 126 510 l 1
 99 510 l 1
 99 924 l 1
 130 955 l 1
 192 893 l 1
 192 576 l 1
 130 515 l 1
672 31 m 1
 641 0 l 1
 175 0 l 1
 144 31 l 1
 206 93 l 1
 610 93 l 1
 672 31 l 1
EndSplineSet
EndChar

StartChar: Adieresis
Encoding: 196 196 106
Width: 816
VWidth: 200
Flags: HW
LayerCount: 2
Fore
SplineSet
473 693 m 0
 473 684 471 676 468 669 c 0
 465 662 461 655 455 649 c 0
 449 643 442 639 435 636 c 0
 428 633 420 631 411 631 c 0
 402 631 394 633 387 636 c 0
 380 639 373 643 367 649 c 0
 361 655 357 662 354 669 c 0
 351 676 349 684 349 693 c 0
 349 702 351 710 354 717 c 0
 357 724 361 730 367 736 c 0
 373 742 380 747 387 750 c 0
 394 753 402 754 411 754 c 0
 420 754 428 753 435 750 c 0
 442 747 449 742 455 736 c 0
 461 730 465 724 468 717 c 0
 471 710 473 702 473 693 c 0
473 281 m 0
 473 272 471 264 468 257 c 0
 465 250 461 243 455 237 c 0
 449 231 442 227 435 224 c 0
 428 221 420 219 411 219 c 0
 402 219 394 221 387 224 c 0
 380 227 373 231 367 237 c 0
 361 243 357 250 354 257 c 0
 351 264 349 272 349 281 c 0
 349 290 351 298 354 305 c 0
 357 312 361 318 367 324 c 0
 373 330 380 335 387 338 c 0
 394 341 402 342 411 342 c 0
 420 342 428 341 435 338 c 0
 442 335 449 330 455 324 c 0
 461 318 465 312 468 305 c 0
 471 298 473 290 473 281 c 0
685 485 m 1
 690 489 l 1
 717 489 l 1
 717 76 l 1
 686 45 l 1
 624 107 l 1
 624 424 l 1
 685 485 l 1
686 955 m 1
 717 924 l 1
 717 510 l 1
 690 510 l 1
 685 514 l 1
 624 575 l 1
 624 893 l 1
 686 955 l 1
672 31 m 1
 641 0 l 1
 175 0 l 1
 144 31 l 1
 206 93 l 1
 610 93 l 1
 672 31 l 1
EndSplineSet
EndChar

StartChar: Ccedilla
Encoding: 199 199 109
Width: 816
VWidth: 200
Flags: HW
LayerCount: 2
Fore
SplineSet
130 45 m 1
 99 76 l 1
 99 490 l 1
 126 490 l 1
 130 485 l 1
 192 424 l 1
 192 107 l 1
 130 45 l 1
671 499 m 1
 624 453 l 1
 624 454 l 1
 192 454 l 1
 192 453 l 1
 144 500 l 1
 192 547 l 1
 192 546 l 1
 624 546 l 1
 671 499 l 1
672 31 m 1
 641 0 l 1
 175 0 l 1
 144 31 l 1
 206 93 l 1
 610 93 l 1
 672 31 l 1
EndSplineSet
EndChar

StartChar: Egrave
Encoding: 200 200 110
Width: 816
VWidth: 200
Flags: HW
LayerCount: 2
Fore
SplineSet
671 499 m 1
 624 453 l 1
 624 454 l 1
 192 454 l 1
 192 453 l 1
 144 500 l 1
 192 547 l 1
 192 546 l 1
 624 546 l 1
 671 499 l 1
685 485 m 1
 690 489 l 1
 717 489 l 1
 717 76 l 1
 686 45 l 1
 624 107 l 1
 624 424 l 1
 685 485 l 1
672 31 m 1
 641 0 l 1
 175 0 l 1
 144 31 l 1
 206 93 l 1
 610 93 l 1
 672 31 l 1
EndSplineSet
EndChar

StartChar: Eacute
Encoding: 201 201 111
Width: 816
VWidth: 200
Flags: HW
LayerCount: 2
Fore
SplineSet
130 515 m 1
 126 510 l 1
 99 510 l 1
 99 924 l 1
 130 955 l 1
 192 893 l 1
 192 576 l 1
 130 515 l 1
144 969 m 1
 175 1000 l 1
 641 1000 l 1
 672 969 l 1
 610 907 l 1
 206 907 l 1
 144 969 l 1
671 499 m 1
 624 453 l 1
 624 454 l 1
 192 454 l 1
 192 453 l 1
 144 500 l 1
 192 547 l 1
 192 546 l 1
 624 546 l 1
 671 499 l 1
EndSplineSet
EndChar

StartChar: Ecircumflex
Encoding: 202 202 112
Width: 816
VWidth: 200
Flags: HW
LayerCount: 2
Fore
SplineSet
144 969 m 1
 175 1000 l 1
 641 1000 l 1
 672 969 l 1
 610 907 l 1
 206 907 l 1
 144 969 l 1
671 499 m 1
 624 453 l 1
 624 454 l 1
 192 454 l 1
 192 453 l 1
 144 500 l 1
 192 547 l 1
 192 546 l 1
 624 546 l 1
 671 499 l 1
686 955 m 1
 717 924 l 1
 717 510 l 1
 690 510 l 1
 685 514 l 1
 624 575 l 1
 624 893 l 1
 686 955 l 1
EndSplineSet
EndChar

StartChar: Edieresis
Encoding: 203 203 113
Width: 816
VWidth: 200
Flags: HW
LayerCount: 2
Fore
SplineSet
473 693 m 4
 473 684 471 676 468 669 c 4
 465 662 461 655 455 649 c 4
 449 643 442 639 435 636 c 4
 428 633 420 631 411 631 c 4
 402 631 394 633 387 636 c 4
 380 639 373 643 367 649 c 4
 361 655 357 662 354 669 c 4
 351 676 349 684 349 693 c 4
 349 702 351 710 354 717 c 4
 357 724 361 730 367 736 c 4
 373 742 380 747 387 750 c 4
 394 753 402 754 411 754 c 4
 420 754 428 753 435 750 c 4
 442 747 449 742 455 736 c 4
 461 730 465 724 468 717 c 4
 471 710 473 702 473 693 c 4
473 281 m 4
 473 272 471 264 468 257 c 4
 465 250 461 243 455 237 c 4
 449 231 442 227 435 224 c 4
 428 221 420 219 411 219 c 4
 402 219 394 221 387 224 c 4
 380 227 373 231 367 237 c 4
 361 243 357 250 354 257 c 4
 351 264 349 272 349 281 c 4
 349 290 351 298 354 305 c 4
 357 312 361 318 367 324 c 4
 373 330 380 335 387 338 c 4
 394 341 402 342 411 342 c 4
 420 342 428 341 435 338 c 4
 442 335 449 330 455 324 c 4
 461 318 465 312 468 305 c 4
 471 298 473 290 473 281 c 4
130 515 m 1
 126 510 l 1
 99 510 l 1
 99 924 l 1
 130 955 l 1
 192 893 l 1
 192 576 l 1
 130 515 l 1
144 969 m 1
 175 1000 l 1
 641 1000 l 1
 672 969 l 1
 610 907 l 1
 206 907 l 1
 144 969 l 1
671 499 m 1
 624 453 l 1
 624 454 l 1
 192 454 l 1
 192 453 l 1
 144 500 l 1
 192 547 l 1
 192 546 l 1
 624 546 l 1
 671 499 l 1
EndSplineSet
EndChar

StartChar: Igrave
Encoding: 204 204 114
Width: 816
VWidth: 200
Flags: HW
LayerCount: 2
Fore
SplineSet
473 693 m 4
 473 684 471 676 468 669 c 4
 465 662 461 655 455 649 c 4
 449 643 442 639 435 636 c 4
 428 633 420 631 411 631 c 4
 402 631 394 633 387 636 c 4
 380 639 373 643 367 649 c 4
 361 655 357 662 354 669 c 4
 351 676 349 684 349 693 c 4
 349 702 351 710 354 717 c 4
 357 724 361 730 367 736 c 4
 373 742 380 747 387 750 c 4
 394 753 402 754 411 754 c 4
 420 754 428 753 435 750 c 4
 442 747 449 742 455 736 c 4
 461 730 465 724 468 717 c 4
 471 710 473 702 473 693 c 4
473 281 m 4
 473 272 471 264 468 257 c 4
 465 250 461 243 455 237 c 4
 449 231 442 227 435 224 c 4
 428 221 420 219 411 219 c 4
 402 219 394 221 387 224 c 4
 380 227 373 231 367 237 c 4
 361 243 357 250 354 257 c 4
 351 264 349 272 349 281 c 4
 349 290 351 298 354 305 c 4
 357 312 361 318 367 324 c 4
 373 330 380 335 387 338 c 4
 394 341 402 342 411 342 c 4
 420 342 428 341 435 338 c 4
 442 335 449 330 455 324 c 4
 461 318 465 312 468 305 c 4
 471 298 473 290 473 281 c 4
144 969 m 1
 175 1000 l 1
 641 1000 l 1
 672 969 l 1
 610 907 l 1
 206 907 l 1
 144 969 l 1
671 499 m 1
 624 453 l 1
 624 454 l 1
 192 454 l 1
 192 453 l 1
 144 500 l 1
 192 547 l 1
 192 546 l 1
 624 546 l 1
 671 499 l 1
686 955 m 1
 717 924 l 1
 717 510 l 1
 690 510 l 1
 685 514 l 1
 624 575 l 1
 624 893 l 1
 686 955 l 1
EndSplineSet
EndChar

StartChar: Icircumflex
Encoding: 206 206 115
Width: 816
VWidth: 200
Flags: HW
LayerCount: 2
Fore
SplineSet
144 969 m 1
 175 1000 l 1
 641 1000 l 1
 672 969 l 1
 610 907 l 1
 206 907 l 1
 144 969 l 1
685 485 m 1
 690 489 l 1
 717 489 l 1
 717 76 l 1
 686 45 l 1
 624 107 l 1
 624 424 l 1
 685 485 l 1
686 955 m 1
 717 924 l 1
 717 510 l 1
 690 510 l 1
 685 514 l 1
 624 575 l 1
 624 893 l 1
 686 955 l 1
672 31 m 1
 641 0 l 1
 175 0 l 1
 144 31 l 1
 206 93 l 1
 610 93 l 1
 672 31 l 1
EndSplineSet
EndChar

StartChar: Eth
Encoding: 208 208 116
Width: 816
VWidth: 200
Flags: HW
LayerCount: 2
Fore
SplineSet
144 969 m 1
 175 1000 l 1
 641 1000 l 1
 672 969 l 1
 610 907 l 1
 206 907 l 1
 144 969 l 1
671 499 m 1
 624 453 l 1
 624 454 l 1
 192 454 l 1
 192 453 l 1
 144 500 l 1
 192 547 l 1
 192 546 l 1
 624 546 l 1
 671 499 l 1
686 955 m 1
 717 924 l 1
 717 510 l 1
 690 510 l 1
 685 514 l 1
 624 575 l 1
 624 893 l 1
 686 955 l 1
672 31 m 1
 641 0 l 1
 175 0 l 1
 144 31 l 1
 206 93 l 1
 610 93 l 1
 672 31 l 1
EndSplineSet
EndChar

StartChar: Iacute
Encoding: 205 205 117
Width: 816
VWidth: 200
Flags: HW
LayerCount: 2
Fore
SplineSet
130 45 m 1
 99 76 l 1
 99 490 l 1
 126 490 l 1
 130 485 l 1
 192 424 l 1
 192 107 l 1
 130 45 l 1
130 515 m 1
 126 510 l 1
 99 510 l 1
 99 924 l 1
 130 955 l 1
 192 893 l 1
 192 576 l 1
 130 515 l 1
144 969 m 1
 175 1000 l 1
 641 1000 l 1
 672 969 l 1
 610 907 l 1
 206 907 l 1
 144 969 l 1
672 31 m 1
 641 0 l 1
 175 0 l 1
 144 31 l 1
 206 93 l 1
 610 93 l 1
 672 31 l 1
EndSplineSet
EndChar

StartChar: Ograve
Encoding: 210 210 118
Width: 816
VWidth: 200
Flags: HW
LayerCount: 2
Fore
SplineSet
130 45 m 1
 99 76 l 1
 99 490 l 1
 126 490 l 1
 130 485 l 1
 192 424 l 1
 192 107 l 1
 130 45 l 1
144 969 m 1
 175 1000 l 1
 641 1000 l 1
 672 969 l 1
 610 907 l 1
 206 907 l 1
 144 969 l 1
671 499 m 1
 624 453 l 1
 624 454 l 1
 192 454 l 1
 192 453 l 1
 144 500 l 1
 192 547 l 1
 192 546 l 1
 624 546 l 1
 671 499 l 1
686 955 m 1
 717 924 l 1
 717 510 l 1
 690 510 l 1
 685 514 l 1
 624 575 l 1
 624 893 l 1
 686 955 l 1
EndSplineSet
EndChar

StartChar: Oacute
Encoding: 211 211 119
Width: 816
VWidth: 200
Flags: HW
LayerCount: 2
Fore
SplineSet
130 45 m 1
 99 76 l 1
 99 490 l 1
 126 490 l 1
 130 485 l 1
 192 424 l 1
 192 107 l 1
 130 45 l 1
130 515 m 1
 126 510 l 1
 99 510 l 1
 99 924 l 1
 130 955 l 1
 192 893 l 1
 192 576 l 1
 130 515 l 1
671 499 m 1
 624 453 l 1
 624 454 l 1
 192 454 l 1
 192 453 l 1
 144 500 l 1
 192 547 l 1
 192 546 l 1
 624 546 l 1
 671 499 l 1
EndSplineSet
EndChar

StartChar: Ocircumflex
Encoding: 212 212 120
Width: 816
VWidth: 200
Flags: HW
LayerCount: 2
Fore
SplineSet
144 969 m 1
 175 1000 l 1
 641 1000 l 1
 672 969 l 1
 610 907 l 1
 206 907 l 1
 144 969 l 1
671 499 m 1
 624 453 l 1
 624 454 l 1
 192 454 l 1
 192 453 l 1
 144 500 l 1
 192 547 l 1
 192 546 l 1
 624 546 l 1
 671 499 l 1
685 485 m 1
 690 489 l 1
 717 489 l 1
 717 76 l 1
 686 45 l 1
 624 107 l 1
 624 424 l 1
 685 485 l 1
686 955 m 1
 717 924 l 1
 717 510 l 1
 690 510 l 1
 685 514 l 1
 624 575 l 1
 624 893 l 1
 686 955 l 1
672 31 m 1
 641 0 l 1
 175 0 l 1
 144 31 l 1
 206 93 l 1
 610 93 l 1
 672 31 l 1
EndSplineSet
EndChar

StartChar: Oslash
Encoding: 216 216 121
Width: 816
VWidth: 200
Flags: HW
LayerCount: 2
Fore
SplineSet
473 693 m 0
 473 684 471 676 468 669 c 0
 465 662 461 655 455 649 c 0
 449 643 442 639 435 636 c 0
 428 633 420 631 411 631 c 0
 402 631 394 633 387 636 c 0
 380 639 373 643 367 649 c 0
 361 655 357 662 354 669 c 0
 351 676 349 684 349 693 c 0
 349 702 351 710 354 717 c 0
 357 724 361 730 367 736 c 0
 373 742 380 747 387 750 c 0
 394 753 402 754 411 754 c 0
 420 754 428 753 435 750 c 0
 442 747 449 742 455 736 c 0
 461 730 465 724 468 717 c 0
 471 710 473 702 473 693 c 0
473 281 m 0
 473 272 471 264 468 257 c 0
 465 250 461 243 455 237 c 0
 449 231 442 227 435 224 c 0
 428 221 420 219 411 219 c 0
 402 219 394 221 387 224 c 0
 380 227 373 231 367 237 c 0
 361 243 357 250 354 257 c 0
 351 264 349 272 349 281 c 0
 349 290 351 298 354 305 c 0
 357 312 361 318 367 324 c 0
 373 330 380 335 387 338 c 0
 394 341 402 342 411 342 c 0
 420 342 428 341 435 338 c 0
 442 335 449 330 455 324 c 0
 461 318 465 312 468 305 c 0
 471 298 473 290 473 281 c 0
144 969 m 1
 175 1000 l 1
 641 1000 l 1
 672 969 l 1
 610 907 l 1
 206 907 l 1
 144 969 l 1
671 499 m 1
 624 453 l 1
 624 454 l 1
 192 454 l 1
 192 453 l 1
 144 500 l 1
 192 547 l 1
 192 546 l 1
 624 546 l 1
 671 499 l 1
685 485 m 1
 690 489 l 1
 717 489 l 1
 717 76 l 1
 686 45 l 1
 624 107 l 1
 624 424 l 1
 685 485 l 1
672 31 m 1
 641 0 l 1
 175 0 l 1
 144 31 l 1
 206 93 l 1
 610 93 l 1
 672 31 l 1
EndSplineSet
EndChar

StartChar: Ugrave
Encoding: 217 217 122
Width: 816
VWidth: 200
Flags: HW
LayerCount: 2
Fore
SplineSet
473 693 m 0
 473 684 471 676 468 669 c 0
 465 662 461 655 455 649 c 0
 449 643 442 639 435 636 c 0
 428 633 420 631 411 631 c 0
 402 631 394 633 387 636 c 0
 380 639 373 643 367 649 c 0
 361 655 357 662 354 669 c 0
 351 676 349 684 349 693 c 0
 349 702 351 710 354 717 c 0
 357 724 361 730 367 736 c 0
 373 742 380 747 387 750 c 0
 394 753 402 754 411 754 c 0
 420 754 428 753 435 750 c 0
 442 747 449 742 455 736 c 0
 461 730 465 724 468 717 c 0
 471 710 473 702 473 693 c 0
473 281 m 0
 473 272 471 264 468 257 c 0
 465 250 461 243 455 237 c 0
 449 231 442 227 435 224 c 0
 428 221 420 219 411 219 c 0
 402 219 394 221 387 224 c 0
 380 227 373 231 367 237 c 0
 361 243 357 250 354 257 c 0
 351 264 349 272 349 281 c 0
 349 290 351 298 354 305 c 0
 357 312 361 318 367 324 c 0
 373 330 380 335 387 338 c 0
 394 341 402 342 411 342 c 0
 420 342 428 341 435 338 c 0
 442 335 449 330 455 324 c 0
 461 318 465 312 468 305 c 0
 471 298 473 290 473 281 c 0
130 515 m 1
 126 510 l 1
 99 510 l 1
 99 924 l 1
 130 955 l 1
 192 893 l 1
 192 576 l 1
 130 515 l 1
144 969 m 1
 175 1000 l 1
 641 1000 l 1
 672 969 l 1
 610 907 l 1
 206 907 l 1
 144 969 l 1
671 499 m 1
 624 453 l 1
 624 454 l 1
 192 454 l 1
 192 453 l 1
 144 500 l 1
 192 547 l 1
 192 546 l 1
 624 546 l 1
 671 499 l 1
672 31 m 1
 641 0 l 1
 175 0 l 1
 144 31 l 1
 206 93 l 1
 610 93 l 1
 672 31 l 1
EndSplineSet
EndChar

StartChar: Uacute
Encoding: 218 218 124
Width: 816
VWidth: 200
Flags: HW
LayerCount: 2
Fore
SplineSet
130 45 m 1
 99 76 l 1
 99 490 l 1
 126 490 l 1
 130 485 l 1
 192 424 l 1
 192 107 l 1
 130 45 l 1
144 969 m 1
 175 1000 l 1
 641 1000 l 1
 672 969 l 1
 610 907 l 1
 206 907 l 1
 144 969 l 1
686 955 m 1
 717 924 l 1
 717 510 l 1
 690 510 l 1
 685 514 l 1
 624 575 l 1
 624 893 l 1
 686 955 l 1
672 31 m 1
 641 0 l 1
 175 0 l 1
 144 31 l 1
 206 93 l 1
 610 93 l 1
 672 31 l 1
EndSplineSet
EndChar

StartChar: Ucircumflex
Encoding: 219 219 125
Width: 816
VWidth: 200
Flags: HW
LayerCount: 2
Fore
SplineSet
130 45 m 1
 99 76 l 1
 99 490 l 1
 126 490 l 1
 130 485 l 1
 192 424 l 1
 192 107 l 1
 130 45 l 1
130 515 m 1
 126 510 l 1
 99 510 l 1
 99 924 l 1
 130 955 l 1
 192 893 l 1
 192 576 l 1
 130 515 l 1
671 499 m 1
 624 453 l 1
 624 454 l 1
 192 454 l 1
 192 453 l 1
 144 500 l 1
 192 547 l 1
 192 546 l 1
 624 546 l 1
 671 499 l 1
685 485 m 1
 690 489 l 1
 717 489 l 1
 717 76 l 1
 686 45 l 1
 624 107 l 1
 624 424 l 1
 685 485 l 1
686 955 m 1
 717 924 l 1
 717 510 l 1
 690 510 l 1
 685 514 l 1
 624 575 l 1
 624 893 l 1
 686 955 l 1
672 31 m 1
 641 0 l 1
 175 0 l 1
 144 31 l 1
 206 93 l 1
 610 93 l 1
 672 31 l 1
EndSplineSet
EndChar

StartChar: Thorn
Encoding: 222 222 126
Width: 816
VWidth: 200
Flags: HW
LayerCount: 2
Fore
SplineSet
473 693 m 4
 473 684 471 676 468 669 c 4
 465 662 461 655 455 649 c 4
 449 643 442 639 435 636 c 4
 428 633 420 631 411 631 c 4
 402 631 394 633 387 636 c 4
 380 639 373 643 367 649 c 4
 361 655 357 662 354 669 c 4
 351 676 349 684 349 693 c 4
 349 702 351 710 354 717 c 4
 357 724 361 730 367 736 c 4
 373 742 380 747 387 750 c 4
 394 753 402 754 411 754 c 4
 420 754 428 753 435 750 c 4
 442 747 449 742 455 736 c 4
 461 730 465 724 468 717 c 4
 471 710 473 702 473 693 c 4
473 281 m 4
 473 272 471 264 468 257 c 4
 465 250 461 243 455 237 c 4
 449 231 442 227 435 224 c 4
 428 221 420 219 411 219 c 4
 402 219 394 221 387 224 c 4
 380 227 373 231 367 237 c 4
 361 243 357 250 354 257 c 4
 351 264 349 272 349 281 c 4
 349 290 351 298 354 305 c 4
 357 312 361 318 367 324 c 4
 373 330 380 335 387 338 c 4
 394 341 402 342 411 342 c 4
 420 342 428 341 435 338 c 4
 442 335 449 330 455 324 c 4
 461 318 465 312 468 305 c 4
 471 298 473 290 473 281 c 4
130 45 m 1
 99 76 l 1
 99 490 l 1
 126 490 l 1
 130 485 l 1
 192 424 l 1
 192 107 l 1
 130 45 l 1
130 515 m 1
 126 510 l 1
 99 510 l 1
 99 924 l 1
 130 955 l 1
 192 893 l 1
 192 576 l 1
 130 515 l 1
144 969 m 1
 175 1000 l 1
 641 1000 l 1
 672 969 l 1
 610 907 l 1
 206 907 l 1
 144 969 l 1
671 499 m 1
 624 453 l 1
 624 454 l 1
 192 454 l 1
 192 453 l 1
 144 500 l 1
 192 547 l 1
 192 546 l 1
 624 546 l 1
 671 499 l 1
685 485 m 1
 690 489 l 1
 717 489 l 1
 717 76 l 1
 686 45 l 1
 624 107 l 1
 624 424 l 1
 685 485 l 1
686 955 m 1
 717 924 l 1
 717 510 l 1
 690 510 l 1
 685 514 l 1
 624 575 l 1
 624 893 l 1
 686 955 l 1
672 31 m 1
 641 0 l 1
 175 0 l 1
 144 31 l 1
 206 93 l 1
 610 93 l 1
 672 31 l 1
EndSplineSet
EndChar

StartChar: agrave
Encoding: 224 224 136
Width: 816
VWidth: 200
Flags: HW
LayerCount: 2
Fore
SplineSet
473 693 m 4
 473 684 471 676 468 669 c 4
 465 662 461 655 455 649 c 4
 449 643 442 639 435 636 c 4
 428 633 420 631 411 631 c 4
 402 631 394 633 387 636 c 4
 380 639 373 643 367 649 c 4
 361 655 357 662 354 669 c 4
 351 676 349 684 349 693 c 4
 349 702 351 710 354 717 c 4
 357 724 361 730 367 736 c 4
 373 742 380 747 387 750 c 4
 394 753 402 754 411 754 c 4
 420 754 428 753 435 750 c 4
 442 747 449 742 455 736 c 4
 461 730 465 724 468 717 c 4
 471 710 473 702 473 693 c 4
473 281 m 4
 473 272 471 264 468 257 c 4
 465 250 461 243 455 237 c 4
 449 231 442 227 435 224 c 4
 428 221 420 219 411 219 c 4
 402 219 394 221 387 224 c 4
 380 227 373 231 367 237 c 4
 361 243 357 250 354 257 c 4
 351 264 349 272 349 281 c 4
 349 290 351 298 354 305 c 4
 357 312 361 318 367 324 c 4
 373 330 380 335 387 338 c 4
 394 341 402 342 411 342 c 4
 420 342 428 341 435 338 c 4
 442 335 449 330 455 324 c 4
 461 318 465 312 468 305 c 4
 471 298 473 290 473 281 c 4
130 45 m 1
 99 76 l 1
 99 490 l 1
 126 490 l 1
 130 485 l 1
 192 424 l 1
 192 107 l 1
 130 45 l 1
130 515 m 1
 126 510 l 1
 99 510 l 1
 99 924 l 1
 130 955 l 1
 192 893 l 1
 192 576 l 1
 130 515 l 1
685 485 m 1
 690 489 l 1
 717 489 l 1
 717 76 l 1
 686 45 l 1
 624 107 l 1
 624 424 l 1
 685 485 l 1
672 31 m 1
 641 0 l 1
 175 0 l 1
 144 31 l 1
 206 93 l 1
 610 93 l 1
 672 31 l 1
EndSplineSet
EndChar

StartChar: aacute
Encoding: 225 225 137
Width: 816
VWidth: 200
Flags: HW
LayerCount: 2
Fore
SplineSet
473 693 m 4
 473 684 471 676 468 669 c 4
 465 662 461 655 455 649 c 4
 449 643 442 639 435 636 c 4
 428 633 420 631 411 631 c 4
 402 631 394 633 387 636 c 4
 380 639 373 643 367 649 c 4
 361 655 357 662 354 669 c 4
 351 676 349 684 349 693 c 4
 349 702 351 710 354 717 c 4
 357 724 361 730 367 736 c 4
 373 742 380 747 387 750 c 4
 394 753 402 754 411 754 c 4
 420 754 428 753 435 750 c 4
 442 747 449 742 455 736 c 4
 461 730 465 724 468 717 c 4
 471 710 473 702 473 693 c 4
473 281 m 4
 473 272 471 264 468 257 c 4
 465 250 461 243 455 237 c 4
 449 231 442 227 435 224 c 4
 428 221 420 219 411 219 c 4
 402 219 394 221 387 224 c 4
 380 227 373 231 367 237 c 4
 361 243 357 250 354 257 c 4
 351 264 349 272 349 281 c 4
 349 290 351 298 354 305 c 4
 357 312 361 318 367 324 c 4
 373 330 380 335 387 338 c 4
 394 341 402 342 411 342 c 4
 420 342 428 341 435 338 c 4
 442 335 449 330 455 324 c 4
 461 318 465 312 468 305 c 4
 471 298 473 290 473 281 c 4
130 45 m 1
 99 76 l 1
 99 490 l 1
 126 490 l 1
 130 485 l 1
 192 424 l 1
 192 107 l 1
 130 45 l 1
685 485 m 1
 690 489 l 1
 717 489 l 1
 717 76 l 1
 686 45 l 1
 624 107 l 1
 624 424 l 1
 685 485 l 1
686 955 m 1
 717 924 l 1
 717 510 l 1
 690 510 l 1
 685 514 l 1
 624 575 l 1
 624 893 l 1
 686 955 l 1
672 31 m 1
 641 0 l 1
 175 0 l 1
 144 31 l 1
 206 93 l 1
 610 93 l 1
 672 31 l 1
EndSplineSet
EndChar

StartChar: acircumflex
Encoding: 226 226 138
Width: 816
VWidth: 200
Flags: HW
LayerCount: 2
Fore
SplineSet
130 45 m 1
 99 76 l 1
 99 490 l 1
 126 490 l 1
 130 485 l 1
 192 424 l 1
 192 107 l 1
 130 45 l 1
130 515 m 1
 126 510 l 1
 99 510 l 1
 99 924 l 1
 130 955 l 1
 192 893 l 1
 192 576 l 1
 130 515 l 1
685 485 m 1
 690 489 l 1
 717 489 l 1
 717 76 l 1
 686 45 l 1
 624 107 l 1
 624 424 l 1
 685 485 l 1
672 31 m 1
 641 0 l 1
 175 0 l 1
 144 31 l 1
 206 93 l 1
 610 93 l 1
 672 31 l 1
EndSplineSet
EndChar

StartChar: atilde
Encoding: 227 227 139
Width: 816
VWidth: 200
Flags: HW
LayerCount: 2
Fore
SplineSet
130 45 m 1
 99 76 l 1
 99 490 l 1
 126 490 l 1
 130 485 l 1
 192 424 l 1
 192 107 l 1
 130 45 l 1
685 485 m 1
 690 489 l 1
 717 489 l 1
 717 76 l 1
 686 45 l 1
 624 107 l 1
 624 424 l 1
 685 485 l 1
686 955 m 1
 717 924 l 1
 717 510 l 1
 690 510 l 1
 685 514 l 1
 624 575 l 1
 624 893 l 1
 686 955 l 1
672 31 m 1
 641 0 l 1
 175 0 l 1
 144 31 l 1
 206 93 l 1
 610 93 l 1
 672 31 l 1
EndSplineSet
EndChar

StartChar: cent
Encoding: 162 162 140
Width: 816
VWidth: 200
Flags: HW
LayerCount: 2
Fore
SplineSet
473 693 m 4
 473 684 471 676 468 669 c 4
 465 662 461 655 455 649 c 4
 449 643 442 639 435 636 c 4
 428 633 420 631 411 631 c 4
 402 631 394 633 387 636 c 4
 380 639 373 643 367 649 c 4
 361 655 357 662 354 669 c 4
 351 676 349 684 349 693 c 4
 349 702 351 710 354 717 c 4
 357 724 361 730 367 736 c 4
 373 742 380 747 387 750 c 4
 394 753 402 754 411 754 c 4
 420 754 428 753 435 750 c 4
 442 747 449 742 455 736 c 4
 461 730 465 724 468 717 c 4
 471 710 473 702 473 693 c 4
473 281 m 4
 473 272 471 264 468 257 c 4
 465 250 461 243 455 237 c 4
 449 231 442 227 435 224 c 4
 428 221 420 219 411 219 c 4
 402 219 394 221 387 224 c 4
 380 227 373 231 367 237 c 4
 361 243 357 250 354 257 c 4
 351 264 349 272 349 281 c 4
 349 290 351 298 354 305 c 4
 357 312 361 318 367 324 c 4
 373 330 380 335 387 338 c 4
 394 341 402 342 411 342 c 4
 420 342 428 341 435 338 c 4
 442 335 449 330 455 324 c 4
 461 318 465 312 468 305 c 4
 471 298 473 290 473 281 c 4
EndSplineSet
EndChar

StartChar: sterling
Encoding: 163 163 141
Width: 816
VWidth: 200
Flags: HW
LayerCount: 2
Fore
SplineSet
672 31 m 1
 641 0 l 1
 175 0 l 1
 144 31 l 1
 206 93 l 1
 610 93 l 1
 672 31 l 1
EndSplineSet
EndChar

StartChar: currency
Encoding: 164 164 142
Width: 816
VWidth: 200
Flags: HW
LayerCount: 2
Fore
SplineSet
671 499 m 1
 624 453 l 1
 624 454 l 1
 192 454 l 1
 192 453 l 1
 144 500 l 1
 192 547 l 1
 192 546 l 1
 624 546 l 1
 671 499 l 1
EndSplineSet
EndChar

StartChar: yen
Encoding: 165 165 143
Width: 816
VWidth: 200
Flags: HW
LayerCount: 2
Fore
SplineSet
144 969 m 1
 175 1000 l 1
 641 1000 l 1
 672 969 l 1
 610 907 l 1
 206 907 l 1
 144 969 l 1
EndSplineSet
EndChar

StartChar: brokenbar
Encoding: 166 166 144
Width: 816
VWidth: 200
Flags: HW
LayerCount: 2
Fore
SplineSet
130 515 m 1
 126 510 l 1
 99 510 l 1
 99 924 l 1
 130 955 l 1
 192 893 l 1
 192 576 l 1
 130 515 l 1
EndSplineSet
EndChar

StartChar: section
Encoding: 167 167 145
Width: 816
VWidth: 200
Flags: HW
LayerCount: 2
Fore
SplineSet
130 45 m 1
 99 76 l 1
 99 490 l 1
 126 490 l 1
 130 485 l 1
 192 424 l 1
 192 107 l 1
 130 45 l 1
EndSplineSet
EndChar

StartChar: copyright
Encoding: 169 169 146
Width: 816
VWidth: 200
Flags: HW
LayerCount: 2
Fore
SplineSet
686 955 m 1
 717 924 l 1
 717 510 l 1
 690 510 l 1
 685 514 l 1
 624 575 l 1
 624 893 l 1
 686 955 l 1
EndSplineSet
EndChar

StartChar: dieresis
Encoding: 168 168 147
Width: 816
VWidth: 200
Flags: HW
LayerCount: 2
Fore
SplineSet
685 485 m 1
 690 489 l 1
 717 489 l 1
 717 76 l 1
 686 45 l 1
 624 107 l 1
 624 424 l 1
 685 485 l 1
EndSplineSet
EndChar

StartChar: guillemotleft
Encoding: 171 171 148
Width: 816
VWidth: 200
Flags: HW
LayerCount: 2
Fore
SplineSet
473 693 m 0
 473 684 471 676 468 669 c 0
 465 662 461 655 455 649 c 0
 449 643 442 639 435 636 c 0
 428 633 420 631 411 631 c 0
 402 631 394 633 387 636 c 0
 380 639 373 643 367 649 c 0
 361 655 357 662 354 669 c 0
 351 676 349 684 349 693 c 0
 349 702 351 710 354 717 c 0
 357 724 361 730 367 736 c 0
 373 742 380 747 387 750 c 0
 394 753 402 754 411 754 c 0
 420 754 428 753 435 750 c 0
 442 747 449 742 455 736 c 0
 461 730 465 724 468 717 c 0
 471 710 473 702 473 693 c 0
473 281 m 0
 473 272 471 264 468 257 c 0
 465 250 461 243 455 237 c 0
 449 231 442 227 435 224 c 0
 428 221 420 219 411 219 c 0
 402 219 394 221 387 224 c 0
 380 227 373 231 367 237 c 0
 361 243 357 250 354 257 c 0
 351 264 349 272 349 281 c 0
 349 290 351 298 354 305 c 0
 357 312 361 318 367 324 c 0
 373 330 380 335 387 338 c 0
 394 341 402 342 411 342 c 0
 420 342 428 341 435 338 c 0
 442 335 449 330 455 324 c 0
 461 318 465 312 468 305 c 0
 471 298 473 290 473 281 c 0
685 485 m 1
 690 489 l 1
 717 489 l 1
 717 76 l 1
 686 45 l 1
 624 107 l 1
 624 424 l 1
 685 485 l 1
686 955 m 1
 717 924 l 1
 717 510 l 1
 690 510 l 1
 685 514 l 1
 624 575 l 1
 624 893 l 1
 686 955 l 1
672 31 m 1
 641 0 l 1
 175 0 l 1
 144 31 l 1
 206 93 l 1
 610 93 l 1
 672 31 l 1
EndSplineSet
EndChar

StartChar: uni0090
Encoding: 144 144 151
Width: 480
Flags: HW
LayerCount: 2
Fore
SplineSet
40 85 m 0
 40 97 45.1666666667 108 55.5 118 c 128
 65.8333333333 128 80.3333333333 136.833333333 99 144.5 c 128
 117.666666667 152.166666667 139.5 158.166666667 164.5 162.5 c 128
 189.5 166.833333333 216.333333333 169 245 169 c 0
 274.333333333 169 301.5 166.833333333 326.5 162.5 c 128
 351.5 158.166666667 373.166666667 152.166666667 391.5 144.5 c 128
 409.833333333 136.833333333 424.333333333 128 435 118 c 128
 445.666666667 108 451 97 451 85 c 0
 451 73.6666666667 445.666666667 63 435 53 c 128
 424.333333333 43 409.833333333 34.3333333333 391.5 27 c 128
 373.166666667 19.6666666667 351.5 13.8333333333 326.5 9.5 c 128
 301.5 5.16666666667 274.333333333 3 245 3 c 0
 216.333333333 3 189.5 5.16666666667 164.5 9.5 c 128
 139.5 13.8333333333 117.666666667 19.6666666667 99 27 c 128
 80.3333333333 34.3333333333 65.8333333333 43 55.5 53 c 128
 45.1666666667 63 40 73.6666666667 40 85 c 0
120 85 m 256
 120 77.6666666667 123.166666667 70.8333333333 129.5 64.5 c 128
 135.833333333 58.1666666667 144.666666667 52.8333333333 156 48.5 c 128
 167.333333333 44.1666666667 180.666666667 40.6666666667 196 38 c 128
 211.333333333 35.3333333333 227.666666667 34 245 34 c 0
 263 34 279.5 35.3333333333 294.5 38 c 128
 309.5 40.6666666667 322.666666667 44.1666666667 334 48.5 c 128
 345.333333333 52.8333333333 354.166666667 58.1666666667 360.5 64.5 c 128
 366.833333333 70.8333333333 370 77.6666666667 370 85 c 256
 370 92.3333333333 366.833333333 99.1666666667 360.5 105.5 c 128
 354.166666667 111.833333333 345.333333333 117.333333333 334 122 c 128
 322.666666667 126.666666667 309.5 130.333333333 294.5 133 c 128
 279.5 135.666666667 263 137 245 137 c 0
 227.666666667 137 211.333333333 135.666666667 196 133 c 128
 180.666666667 130.333333333 167.333333333 126.666666667 156 122 c 128
 144.666666667 117.333333333 135.833333333 111.833333333 129.5 105.5 c 128
 123.166666667 99.1666666667 120 92.3333333333 120 85 c 256
40 272 m 0
 40 284 45.1666666667 295 55.5 305 c 128
 65.8333333333 315 80.3333333333 323.833333333 99 331.5 c 128
 117.666666667 339.166666667 139.5 345 164.5 349 c 128
 189.5 353 216.333333333 355 245 355 c 0
 274.333333333 355 301.5 353 326.5 349 c 128
 351.5 345 373.166666667 339.166666667 391.5 331.5 c 128
 409.833333333 323.833333333 424.333333333 315 435 305 c 128
 445.666666667 295 451 284 451 272 c 0
 451 260.666666667 445.666666667 250 435 240 c 128
 424.333333333 230 409.833333333 221.333333333 391.5 214 c 128
 373.166666667 206.666666667 351.5 200.666666667 326.5 196 c 128
 301.5 191.333333333 274.333333333 189 245 189 c 0
 216.333333333 189 189.5 191.333333333 164.5 196 c 128
 139.5 200.666666667 117.666666667 206.666666667 99 214 c 128
 80.3333333333 221.333333333 65.8333333333 230 55.5 240 c 128
 45.1666666667 250 40 260.666666667 40 272 c 0
120 272 m 256
 120 264.666666667 123.166666667 257.833333333 129.5 251.5 c 128
 135.833333333 245.166666667 144.666666667 239.666666667 156 235 c 128
 167.333333333 230.333333333 180.666666667 226.666666667 196 224 c 128
 211.333333333 221.333333333 227.666666667 220 245 220 c 0
 263 220 279.5 221.333333333 294.5 224 c 128
 309.5 226.666666667 322.666666667 230.333333333 334 235 c 128
 345.333333333 239.666666667 354.166666667 245.166666667 360.5 251.5 c 128
 366.833333333 257.833333333 370 264.666666667 370 272 c 256
 370 279.333333333 366.833333333 286.166666667 360.5 292.5 c 128
 354.166666667 298.833333333 345.333333333 304.333333333 334 309 c 128
 322.666666667 313.666666667 309.5 317.333333333 294.5 320 c 128
 279.5 322.666666667 263 324 245 324 c 0
 227.666666667 324 211.333333333 322.666666667 196 320 c 128
 180.666666667 317.333333333 167.333333333 313.666666667 156 309 c 128
 144.666666667 304.333333333 135.833333333 298.833333333 129.5 292.5 c 128
 123.166666667 286.166666667 120 279.333333333 120 272 c 256
40 461 m 256
 40 472.333333333 45.1666666667 483.166666667 55.5 493.5 c 128
 65.8333333333 503.833333333 80.3333333333 512.666666667 99 520 c 128
 117.666666667 527.333333333 139.5 533.166666667 164.5 537.5 c 128
 189.5 541.833333333 216.333333333 544 245 544 c 0
 274.333333333 544 301.5 541.833333333 326.5 537.5 c 128
 351.5 533.166666667 373.166666667 527.333333333 391.5 520 c 128
 409.833333333 512.666666667 424.333333333 503.833333333 435 493.5 c 128
 445.666666667 483.166666667 451 472.333333333 451 461 c 256
 451 449.666666667 445.666666667 439 435 429 c 128
 424.333333333 419 409.833333333 410.166666667 391.5 402.5 c 128
 373.166666667 394.833333333 351.5 388.833333333 326.5 384.5 c 128
 301.5 380.166666667 274.333333333 378 245 378 c 0
 216.333333333 378 189.5 380.166666667 164.5 384.5 c 128
 139.5 388.833333333 117.666666667 394.833333333 99 402.5 c 128
 80.3333333333 410.166666667 65.8333333333 419 55.5 429 c 128
 45.1666666667 439 40 449.666666667 40 461 c 256
120 461 m 256
 120 453.666666667 123.166666667 446.833333333 129.5 440.5 c 128
 135.833333333 434.166666667 144.666666667 428.666666667 156 424 c 128
 167.333333333 419.333333333 180.666666667 415.666666667 196 413 c 128
 211.333333333 410.333333333 227.666666667 409 245 409 c 0
 263 409 279.5 410.333333333 294.5 413 c 128
 309.5 415.666666667 322.666666667 419.333333333 334 424 c 128
 345.333333333 428.666666667 354.166666667 434.166666667 360.5 440.5 c 128
 366.833333333 446.833333333 370 453.666666667 370 461 c 256
 370 468.333333333 366.833333333 475.166666667 360.5 481.5 c 128
 354.166666667 487.833333333 345.333333333 493.333333333 334 498 c 128
 322.666666667 502.666666667 309.5 506.333333333 294.5 509 c 128
 279.5 511.666666667 263 513 245 513 c 0
 227.666666667 513 211.333333333 511.666666667 196 509 c 128
 180.666666667 506.333333333 167.333333333 502.666666667 156 498 c 128
 144.666666667 493.333333333 135.833333333 487.833333333 129.5 481.5 c 128
 123.166666667 475.166666667 120 468.333333333 120 461 c 256
40 648 m 256
 40 659.333333333 45.1666666667 670.166666667 55.5 680.5 c 128
 65.8333333333 690.833333333 80.3333333333 699.666666667 99 707 c 128
 117.666666667 714.333333333 139.5 720.166666667 164.5 724.5 c 128
 189.5 728.833333333 216.333333333 731 245 731 c 0
 274.333333333 731 301.5 728.833333333 326.5 724.5 c 128
 351.5 720.166666667 373.166666667 714.333333333 391.5 707 c 128
 409.833333333 699.666666667 424.333333333 690.833333333 435 680.5 c 128
 445.666666667 670.166666667 451 659.333333333 451 648 c 256
 451 636.666666667 445.666666667 626 435 616 c 128
 424.333333333 606 409.833333333 597.166666667 391.5 589.5 c 128
 373.166666667 581.833333333 351.5 575.833333333 326.5 571.5 c 128
 301.5 567.166666667 274.333333333 565 245 565 c 0
 216.333333333 565 189.5 567.166666667 164.5 571.5 c 128
 139.5 575.833333333 117.666666667 581.833333333 99 589.5 c 128
 80.3333333333 597.166666667 65.8333333333 606 55.5 616 c 128
 45.1666666667 626 40 636.666666667 40 648 c 256
120 648 m 0
 120 640.666666667 123.166666667 633.833333333 129.5 627.5 c 128
 135.833333333 621.166666667 144.666666667 615.666666667 156 611 c 128
 167.333333333 606.333333333 180.666666667 602.666666667 196 600 c 128
 211.333333333 597.333333333 227.666666667 596 245 596 c 0
 263 596 279.5 597.333333333 294.5 600 c 128
 309.5 602.666666667 322.666666667 606.333333333 334 611 c 128
 345.333333333 615.666666667 354.166666667 621.166666667 360.5 627.5 c 128
 366.833333333 633.833333333 370 640.666666667 370 648 c 0
 370 654.666666667 366.833333333 661.333333333 360.5 668 c 128
 354.166666667 674.666666667 345.333333333 680.333333333 334 685 c 128
 322.666666667 689.666666667 309.5 693.333333333 294.5 696 c 128
 279.5 698.666666667 263 700 245 700 c 0
 227.666666667 700 211.333333333 698.666666667 196 696 c 128
 180.666666667 693.333333333 167.333333333 689.666666667 156 685 c 128
 144.666666667 680.333333333 135.833333333 674.666666667 129.5 668 c 128
 123.166666667 661.333333333 120 654.666666667 120 648 c 0
EndSplineSet
EndChar

StartChar: uni0091
Encoding: 145 145 152
Width: 480
Flags: HW
LayerCount: 2
Fore
SplineSet
40 85 m 0
 40 97 45.1666666667 108 55.5 118 c 128
 65.8333333333 128 80.3333333333 136.833333333 99 144.5 c 128
 117.666666667 152.166666667 139.5 158.166666667 164.5 162.5 c 128
 189.5 166.833333333 216.333333333 169 245 169 c 0
 274.333333333 169 301.5 166.833333333 326.5 162.5 c 128
 351.5 158.166666667 373.166666667 152.166666667 391.5 144.5 c 128
 409.833333333 136.833333333 424.333333333 128 435 118 c 128
 445.666666667 108 451 97 451 85 c 0
 451 73.6666666667 445.666666667 63 435 53 c 128
 424.333333333 43 409.833333333 34.3333333333 391.5 27 c 128
 373.166666667 19.6666666667 351.5 13.8333333333 326.5 9.5 c 128
 301.5 5.16666666667 274.333333333 3 245 3 c 0
 216.333333333 3 189.5 5.16666666667 164.5 9.5 c 128
 139.5 13.8333333333 117.666666667 19.6666666667 99 27 c 128
 80.3333333333 34.3333333333 65.8333333333 43 55.5 53 c 128
 45.1666666667 63 40 73.6666666667 40 85 c 0
40 272 m 0
 40 284 45.1666666667 295 55.5 305 c 128
 65.8333333333 315 80.3333333333 323.833333333 99 331.5 c 128
 117.666666667 339.166666667 139.5 345 164.5 349 c 128
 189.5 353 216.333333333 355 245 355 c 0
 274.333333333 355 301.5 353 326.5 349 c 128
 351.5 345 373.166666667 339.166666667 391.5 331.5 c 128
 409.833333333 323.833333333 424.333333333 315 435 305 c 128
 445.666666667 295 451 284 451 272 c 0
 451 260.666666667 445.666666667 250 435 240 c 128
 424.333333333 230 409.833333333 221.333333333 391.5 214 c 128
 373.166666667 206.666666667 351.5 200.666666667 326.5 196 c 128
 301.5 191.333333333 274.333333333 189 245 189 c 0
 216.333333333 189 189.5 191.333333333 164.5 196 c 128
 139.5 200.666666667 117.666666667 206.666666667 99 214 c 128
 80.3333333333 221.333333333 65.8333333333 230 55.5 240 c 128
 45.1666666667 250 40 260.666666667 40 272 c 0
120 272 m 256
 120 264.666666667 123.166666667 257.833333333 129.5 251.5 c 128
 135.833333333 245.166666667 144.666666667 239.666666667 156 235 c 128
 167.333333333 230.333333333 180.666666667 226.666666667 196 224 c 128
 211.333333333 221.333333333 227.666666667 220 245 220 c 0
 263 220 279.5 221.333333333 294.5 224 c 128
 309.5 226.666666667 322.666666667 230.333333333 334 235 c 128
 345.333333333 239.666666667 354.166666667 245.166666667 360.5 251.5 c 128
 366.833333333 257.833333333 370 264.666666667 370 272 c 256
 370 279.333333333 366.833333333 286.166666667 360.5 292.5 c 128
 354.166666667 298.833333333 345.333333333 304.333333333 334 309 c 128
 322.666666667 313.666666667 309.5 317.333333333 294.5 320 c 128
 279.5 322.666666667 263 324 245 324 c 0
 227.666666667 324 211.333333333 322.666666667 196 320 c 128
 180.666666667 317.333333333 167.333333333 313.666666667 156 309 c 128
 144.666666667 304.333333333 135.833333333 298.833333333 129.5 292.5 c 128
 123.166666667 286.166666667 120 279.333333333 120 272 c 256
40 461 m 256
 40 472.333333333 45.1666666667 483.166666667 55.5 493.5 c 128
 65.8333333333 503.833333333 80.3333333333 512.666666667 99 520 c 128
 117.666666667 527.333333333 139.5 533.166666667 164.5 537.5 c 128
 189.5 541.833333333 216.333333333 544 245 544 c 0
 274.333333333 544 301.5 541.833333333 326.5 537.5 c 128
 351.5 533.166666667 373.166666667 527.333333333 391.5 520 c 128
 409.833333333 512.666666667 424.333333333 503.833333333 435 493.5 c 128
 445.666666667 483.166666667 451 472.333333333 451 461 c 256
 451 449.666666667 445.666666667 439 435 429 c 128
 424.333333333 419 409.833333333 410.166666667 391.5 402.5 c 128
 373.166666667 394.833333333 351.5 388.833333333 326.5 384.5 c 128
 301.5 380.166666667 274.333333333 378 245 378 c 0
 216.333333333 378 189.5 380.166666667 164.5 384.5 c 128
 139.5 388.833333333 117.666666667 394.833333333 99 402.5 c 128
 80.3333333333 410.166666667 65.8333333333 419 55.5 429 c 128
 45.1666666667 439 40 449.666666667 40 461 c 256
120 461 m 256
 120 453.666666667 123.166666667 446.833333333 129.5 440.5 c 128
 135.833333333 434.166666667 144.666666667 428.666666667 156 424 c 128
 167.333333333 419.333333333 180.666666667 415.666666667 196 413 c 128
 211.333333333 410.333333333 227.666666667 409 245 409 c 0
 263 409 279.5 410.333333333 294.5 413 c 128
 309.5 415.666666667 322.666666667 419.333333333 334 424 c 128
 345.333333333 428.666666667 354.166666667 434.166666667 360.5 440.5 c 128
 366.833333333 446.833333333 370 453.666666667 370 461 c 256
 370 468.333333333 366.833333333 475.166666667 360.5 481.5 c 128
 354.166666667 487.833333333 345.333333333 493.333333333 334 498 c 128
 322.666666667 502.666666667 309.5 506.333333333 294.5 509 c 128
 279.5 511.666666667 263 513 245 513 c 0
 227.666666667 513 211.333333333 511.666666667 196 509 c 128
 180.666666667 506.333333333 167.333333333 502.666666667 156 498 c 128
 144.666666667 493.333333333 135.833333333 487.833333333 129.5 481.5 c 128
 123.166666667 475.166666667 120 468.333333333 120 461 c 256
40 648 m 256
 40 659.333333333 45.1666666667 670.166666667 55.5 680.5 c 128
 65.8333333333 690.833333333 80.3333333333 699.666666667 99 707 c 128
 117.666666667 714.333333333 139.5 720.166666667 164.5 724.5 c 128
 189.5 728.833333333 216.333333333 731 245 731 c 0
 274.333333333 731 301.5 728.833333333 326.5 724.5 c 128
 351.5 720.166666667 373.166666667 714.333333333 391.5 707 c 128
 409.833333333 699.666666667 424.333333333 690.833333333 435 680.5 c 128
 445.666666667 670.166666667 451 659.333333333 451 648 c 256
 451 636.666666667 445.666666667 626 435 616 c 128
 424.333333333 606 409.833333333 597.166666667 391.5 589.5 c 128
 373.166666667 581.833333333 351.5 575.833333333 326.5 571.5 c 128
 301.5 567.166666667 274.333333333 565 245 565 c 0
 216.333333333 565 189.5 567.166666667 164.5 571.5 c 128
 139.5 575.833333333 117.666666667 581.833333333 99 589.5 c 128
 80.3333333333 597.166666667 65.8333333333 606 55.5 616 c 128
 45.1666666667 626 40 636.666666667 40 648 c 256
120 648 m 0
 120 640.666666667 123.166666667 633.833333333 129.5 627.5 c 128
 135.833333333 621.166666667 144.666666667 615.666666667 156 611 c 128
 167.333333333 606.333333333 180.666666667 602.666666667 196 600 c 128
 211.333333333 597.333333333 227.666666667 596 245 596 c 0
 263 596 279.5 597.333333333 294.5 600 c 128
 309.5 602.666666667 322.666666667 606.333333333 334 611 c 128
 345.333333333 615.666666667 354.166666667 621.166666667 360.5 627.5 c 128
 366.833333333 633.833333333 370 640.666666667 370 648 c 0
 370 654.666666667 366.833333333 661.333333333 360.5 668 c 128
 354.166666667 674.666666667 345.333333333 680.333333333 334 685 c 128
 322.666666667 689.666666667 309.5 693.333333333 294.5 696 c 128
 279.5 698.666666667 263 700 245 700 c 0
 227.666666667 700 211.333333333 698.666666667 196 696 c 128
 180.666666667 693.333333333 167.333333333 689.666666667 156 685 c 128
 144.666666667 680.333333333 135.833333333 674.666666667 129.5 668 c 128
 123.166666667 661.333333333 120 654.666666667 120 648 c 0
EndSplineSet
EndChar

StartChar: uni0092
Encoding: 146 146 153
Width: 480
Flags: HW
LayerCount: 2
Fore
SplineSet
40 85 m 0
 40 97 45.1666666667 108 55.5 118 c 128
 65.8333333333 128 80.3333333333 136.833333333 99 144.5 c 128
 117.666666667 152.166666667 139.5 158.166666667 164.5 162.5 c 128
 189.5 166.833333333 216.333333333 169 245 169 c 0
 274.333333333 169 301.5 166.833333333 326.5 162.5 c 128
 351.5 158.166666667 373.166666667 152.166666667 391.5 144.5 c 128
 409.833333333 136.833333333 424.333333333 128 435 118 c 128
 445.666666667 108 451 97 451 85 c 0
 451 73.6666666667 445.666666667 63 435 53 c 128
 424.333333333 43 409.833333333 34.3333333333 391.5 27 c 128
 373.166666667 19.6666666667 351.5 13.8333333333 326.5 9.5 c 128
 301.5 5.16666666667 274.333333333 3 245 3 c 0
 216.333333333 3 189.5 5.16666666667 164.5 9.5 c 128
 139.5 13.8333333333 117.666666667 19.6666666667 99 27 c 128
 80.3333333333 34.3333333333 65.8333333333 43 55.5 53 c 128
 45.1666666667 63 40 73.6666666667 40 85 c 0
120 85 m 256
 120 77.6666666667 123.166666667 70.8333333333 129.5 64.5 c 128
 135.833333333 58.1666666667 144.666666667 52.8333333333 156 48.5 c 128
 167.333333333 44.1666666667 180.666666667 40.6666666667 196 38 c 128
 211.333333333 35.3333333333 227.666666667 34 245 34 c 0
 263 34 279.5 35.3333333333 294.5 38 c 128
 309.5 40.6666666667 322.666666667 44.1666666667 334 48.5 c 128
 345.333333333 52.8333333333 354.166666667 58.1666666667 360.5 64.5 c 128
 366.833333333 70.8333333333 370 77.6666666667 370 85 c 256
 370 92.3333333333 366.833333333 99.1666666667 360.5 105.5 c 128
 354.166666667 111.833333333 345.333333333 117.333333333 334 122 c 128
 322.666666667 126.666666667 309.5 130.333333333 294.5 133 c 128
 279.5 135.666666667 263 137 245 137 c 0
 227.666666667 137 211.333333333 135.666666667 196 133 c 128
 180.666666667 130.333333333 167.333333333 126.666666667 156 122 c 128
 144.666666667 117.333333333 135.833333333 111.833333333 129.5 105.5 c 128
 123.166666667 99.1666666667 120 92.3333333333 120 85 c 256
40 272 m 0
 40 284 45.1666666667 295 55.5 305 c 128
 65.8333333333 315 80.3333333333 323.833333333 99 331.5 c 128
 117.666666667 339.166666667 139.5 345 164.5 349 c 128
 189.5 353 216.333333333 355 245 355 c 0
 274.333333333 355 301.5 353 326.5 349 c 128
 351.5 345 373.166666667 339.166666667 391.5 331.5 c 128
 409.833333333 323.833333333 424.333333333 315 435 305 c 128
 445.666666667 295 451 284 451 272 c 0
 451 260.666666667 445.666666667 250 435 240 c 128
 424.333333333 230 409.833333333 221.333333333 391.5 214 c 128
 373.166666667 206.666666667 351.5 200.666666667 326.5 196 c 128
 301.5 191.333333333 274.333333333 189 245 189 c 0
 216.333333333 189 189.5 191.333333333 164.5 196 c 128
 139.5 200.666666667 117.666666667 206.666666667 99 214 c 128
 80.3333333333 221.333333333 65.8333333333 230 55.5 240 c 128
 45.1666666667 250 40 260.666666667 40 272 c 0
40 461 m 256
 40 472.333333333 45.1666666667 483.166666667 55.5 493.5 c 128
 65.8333333333 503.833333333 80.3333333333 512.666666667 99 520 c 128
 117.666666667 527.333333333 139.5 533.166666667 164.5 537.5 c 128
 189.5 541.833333333 216.333333333 544 245 544 c 0
 274.333333333 544 301.5 541.833333333 326.5 537.5 c 128
 351.5 533.166666667 373.166666667 527.333333333 391.5 520 c 128
 409.833333333 512.666666667 424.333333333 503.833333333 435 493.5 c 128
 445.666666667 483.166666667 451 472.333333333 451 461 c 256
 451 449.666666667 445.666666667 439 435 429 c 128
 424.333333333 419 409.833333333 410.166666667 391.5 402.5 c 128
 373.166666667 394.833333333 351.5 388.833333333 326.5 384.5 c 128
 301.5 380.166666667 274.333333333 378 245 378 c 0
 216.333333333 378 189.5 380.166666667 164.5 384.5 c 128
 139.5 388.833333333 117.666666667 394.833333333 99 402.5 c 128
 80.3333333333 410.166666667 65.8333333333 419 55.5 429 c 128
 45.1666666667 439 40 449.666666667 40 461 c 256
120 461 m 256
 120 453.666666667 123.166666667 446.833333333 129.5 440.5 c 128
 135.833333333 434.166666667 144.666666667 428.666666667 156 424 c 128
 167.333333333 419.333333333 180.666666667 415.666666667 196 413 c 128
 211.333333333 410.333333333 227.666666667 409 245 409 c 0
 263 409 279.5 410.333333333 294.5 413 c 128
 309.5 415.666666667 322.666666667 419.333333333 334 424 c 128
 345.333333333 428.666666667 354.166666667 434.166666667 360.5 440.5 c 128
 366.833333333 446.833333333 370 453.666666667 370 461 c 256
 370 468.333333333 366.833333333 475.166666667 360.5 481.5 c 128
 354.166666667 487.833333333 345.333333333 493.333333333 334 498 c 128
 322.666666667 502.666666667 309.5 506.333333333 294.5 509 c 128
 279.5 511.666666667 263 513 245 513 c 0
 227.666666667 513 211.333333333 511.666666667 196 509 c 128
 180.666666667 506.333333333 167.333333333 502.666666667 156 498 c 128
 144.666666667 493.333333333 135.833333333 487.833333333 129.5 481.5 c 128
 123.166666667 475.166666667 120 468.333333333 120 461 c 256
40 648 m 256
 40 659.333333333 45.1666666667 670.166666667 55.5 680.5 c 128
 65.8333333333 690.833333333 80.3333333333 699.666666667 99 707 c 128
 117.666666667 714.333333333 139.5 720.166666667 164.5 724.5 c 128
 189.5 728.833333333 216.333333333 731 245 731 c 0
 274.333333333 731 301.5 728.833333333 326.5 724.5 c 128
 351.5 720.166666667 373.166666667 714.333333333 391.5 707 c 128
 409.833333333 699.666666667 424.333333333 690.833333333 435 680.5 c 128
 445.666666667 670.166666667 451 659.333333333 451 648 c 256
 451 636.666666667 445.666666667 626 435 616 c 128
 424.333333333 606 409.833333333 597.166666667 391.5 589.5 c 128
 373.166666667 581.833333333 351.5 575.833333333 326.5 571.5 c 128
 301.5 567.166666667 274.333333333 565 245 565 c 0
 216.333333333 565 189.5 567.166666667 164.5 571.5 c 128
 139.5 575.833333333 117.666666667 581.833333333 99 589.5 c 128
 80.3333333333 597.166666667 65.8333333333 606 55.5 616 c 128
 45.1666666667 626 40 636.666666667 40 648 c 256
120 648 m 0
 120 640.666666667 123.166666667 633.833333333 129.5 627.5 c 128
 135.833333333 621.166666667 144.666666667 615.666666667 156 611 c 128
 167.333333333 606.333333333 180.666666667 602.666666667 196 600 c 128
 211.333333333 597.333333333 227.666666667 596 245 596 c 0
 263 596 279.5 597.333333333 294.5 600 c 128
 309.5 602.666666667 322.666666667 606.333333333 334 611 c 128
 345.333333333 615.666666667 354.166666667 621.166666667 360.5 627.5 c 128
 366.833333333 633.833333333 370 640.666666667 370 648 c 0
 370 654.666666667 366.833333333 661.333333333 360.5 668 c 128
 354.166666667 674.666666667 345.333333333 680.333333333 334 685 c 128
 322.666666667 689.666666667 309.5 693.333333333 294.5 696 c 128
 279.5 698.666666667 263 700 245 700 c 0
 227.666666667 700 211.333333333 698.666666667 196 696 c 128
 180.666666667 693.333333333 167.333333333 689.666666667 156 685 c 128
 144.666666667 680.333333333 135.833333333 674.666666667 129.5 668 c 128
 123.166666667 661.333333333 120 654.666666667 120 648 c 0
EndSplineSet
EndChar

StartChar: uni0093
Encoding: 147 147 154
Width: 480
Flags: HW
LayerCount: 2
Fore
SplineSet
40 85 m 0
 40 97 45.1666666667 108 55.5 118 c 128
 65.8333333333 128 80.3333333333 136.833333333 99 144.5 c 128
 117.666666667 152.166666667 139.5 158.166666667 164.5 162.5 c 128
 189.5 166.833333333 216.333333333 169 245 169 c 0
 274.333333333 169 301.5 166.833333333 326.5 162.5 c 128
 351.5 158.166666667 373.166666667 152.166666667 391.5 144.5 c 128
 409.833333333 136.833333333 424.333333333 128 435 118 c 128
 445.666666667 108 451 97 451 85 c 0
 451 73.6666666667 445.666666667 63 435 53 c 128
 424.333333333 43 409.833333333 34.3333333333 391.5 27 c 128
 373.166666667 19.6666666667 351.5 13.8333333333 326.5 9.5 c 128
 301.5 5.16666666667 274.333333333 3 245 3 c 0
 216.333333333 3 189.5 5.16666666667 164.5 9.5 c 128
 139.5 13.8333333333 117.666666667 19.6666666667 99 27 c 128
 80.3333333333 34.3333333333 65.8333333333 43 55.5 53 c 128
 45.1666666667 63 40 73.6666666667 40 85 c 0
40 272 m 0
 40 284 45.1666666667 295 55.5 305 c 128
 65.8333333333 315 80.3333333333 323.833333333 99 331.5 c 128
 117.666666667 339.166666667 139.5 345 164.5 349 c 128
 189.5 353 216.333333333 355 245 355 c 0
 274.333333333 355 301.5 353 326.5 349 c 128
 351.5 345 373.166666667 339.166666667 391.5 331.5 c 128
 409.833333333 323.833333333 424.333333333 315 435 305 c 128
 445.666666667 295 451 284 451 272 c 0
 451 260.666666667 445.666666667 250 435 240 c 128
 424.333333333 230 409.833333333 221.333333333 391.5 214 c 128
 373.166666667 206.666666667 351.5 200.666666667 326.5 196 c 128
 301.5 191.333333333 274.333333333 189 245 189 c 0
 216.333333333 189 189.5 191.333333333 164.5 196 c 128
 139.5 200.666666667 117.666666667 206.666666667 99 214 c 128
 80.3333333333 221.333333333 65.8333333333 230 55.5 240 c 128
 45.1666666667 250 40 260.666666667 40 272 c 0
40 461 m 256
 40 472.333333333 45.1666666667 483.166666667 55.5 493.5 c 128
 65.8333333333 503.833333333 80.3333333333 512.666666667 99 520 c 128
 117.666666667 527.333333333 139.5 533.166666667 164.5 537.5 c 128
 189.5 541.833333333 216.333333333 544 245 544 c 0
 274.333333333 544 301.5 541.833333333 326.5 537.5 c 128
 351.5 533.166666667 373.166666667 527.333333333 391.5 520 c 128
 409.833333333 512.666666667 424.333333333 503.833333333 435 493.5 c 128
 445.666666667 483.166666667 451 472.333333333 451 461 c 256
 451 449.666666667 445.666666667 439 435 429 c 128
 424.333333333 419 409.833333333 410.166666667 391.5 402.5 c 128
 373.166666667 394.833333333 351.5 388.833333333 326.5 384.5 c 128
 301.5 380.166666667 274.333333333 378 245 378 c 0
 216.333333333 378 189.5 380.166666667 164.5 384.5 c 128
 139.5 388.833333333 117.666666667 394.833333333 99 402.5 c 128
 80.3333333333 410.166666667 65.8333333333 419 55.5 429 c 128
 45.1666666667 439 40 449.666666667 40 461 c 256
120 461 m 256
 120 453.666666667 123.166666667 446.833333333 129.5 440.5 c 128
 135.833333333 434.166666667 144.666666667 428.666666667 156 424 c 128
 167.333333333 419.333333333 180.666666667 415.666666667 196 413 c 128
 211.333333333 410.333333333 227.666666667 409 245 409 c 0
 263 409 279.5 410.333333333 294.5 413 c 128
 309.5 415.666666667 322.666666667 419.333333333 334 424 c 128
 345.333333333 428.666666667 354.166666667 434.166666667 360.5 440.5 c 128
 366.833333333 446.833333333 370 453.666666667 370 461 c 256
 370 468.333333333 366.833333333 475.166666667 360.5 481.5 c 128
 354.166666667 487.833333333 345.333333333 493.333333333 334 498 c 128
 322.666666667 502.666666667 309.5 506.333333333 294.5 509 c 128
 279.5 511.666666667 263 513 245 513 c 0
 227.666666667 513 211.333333333 511.666666667 196 509 c 128
 180.666666667 506.333333333 167.333333333 502.666666667 156 498 c 128
 144.666666667 493.333333333 135.833333333 487.833333333 129.5 481.5 c 128
 123.166666667 475.166666667 120 468.333333333 120 461 c 256
40 648 m 256
 40 659.333333333 45.1666666667 670.166666667 55.5 680.5 c 128
 65.8333333333 690.833333333 80.3333333333 699.666666667 99 707 c 128
 117.666666667 714.333333333 139.5 720.166666667 164.5 724.5 c 128
 189.5 728.833333333 216.333333333 731 245 731 c 0
 274.333333333 731 301.5 728.833333333 326.5 724.5 c 128
 351.5 720.166666667 373.166666667 714.333333333 391.5 707 c 128
 409.833333333 699.666666667 424.333333333 690.833333333 435 680.5 c 128
 445.666666667 670.166666667 451 659.333333333 451 648 c 256
 451 636.666666667 445.666666667 626 435 616 c 128
 424.333333333 606 409.833333333 597.166666667 391.5 589.5 c 128
 373.166666667 581.833333333 351.5 575.833333333 326.5 571.5 c 128
 301.5 567.166666667 274.333333333 565 245 565 c 0
 216.333333333 565 189.5 567.166666667 164.5 571.5 c 128
 139.5 575.833333333 117.666666667 581.833333333 99 589.5 c 128
 80.3333333333 597.166666667 65.8333333333 606 55.5 616 c 128
 45.1666666667 626 40 636.666666667 40 648 c 256
120 648 m 0
 120 640.666666667 123.166666667 633.833333333 129.5 627.5 c 128
 135.833333333 621.166666667 144.666666667 615.666666667 156 611 c 128
 167.333333333 606.333333333 180.666666667 602.666666667 196 600 c 128
 211.333333333 597.333333333 227.666666667 596 245 596 c 0
 263 596 279.5 597.333333333 294.5 600 c 128
 309.5 602.666666667 322.666666667 606.333333333 334 611 c 128
 345.333333333 615.666666667 354.166666667 621.166666667 360.5 627.5 c 128
 366.833333333 633.833333333 370 640.666666667 370 648 c 0
 370 654.666666667 366.833333333 661.333333333 360.5 668 c 128
 354.166666667 674.666666667 345.333333333 680.333333333 334 685 c 128
 322.666666667 689.666666667 309.5 693.333333333 294.5 696 c 128
 279.5 698.666666667 263 700 245 700 c 0
 227.666666667 700 211.333333333 698.666666667 196 696 c 128
 180.666666667 693.333333333 167.333333333 689.666666667 156 685 c 128
 144.666666667 680.333333333 135.833333333 674.666666667 129.5 668 c 128
 123.166666667 661.333333333 120 654.666666667 120 648 c 0
EndSplineSet
EndChar

StartChar: uni0094
Encoding: 148 148 155
Width: 480
Flags: HW
LayerCount: 2
Fore
SplineSet
40 85 m 0
 40 97 45.1666666667 108 55.5 118 c 128
 65.8333333333 128 80.3333333333 136.833333333 99 144.5 c 128
 117.666666667 152.166666667 139.5 158.166666667 164.5 162.5 c 128
 189.5 166.833333333 216.333333333 169 245 169 c 0
 274.333333333 169 301.5 166.833333333 326.5 162.5 c 128
 351.5 158.166666667 373.166666667 152.166666667 391.5 144.5 c 128
 409.833333333 136.833333333 424.333333333 128 435 118 c 128
 445.666666667 108 451 97 451 85 c 0
 451 73.6666666667 445.666666667 63 435 53 c 128
 424.333333333 43 409.833333333 34.3333333333 391.5 27 c 128
 373.166666667 19.6666666667 351.5 13.8333333333 326.5 9.5 c 128
 301.5 5.16666666667 274.333333333 3 245 3 c 0
 216.333333333 3 189.5 5.16666666667 164.5 9.5 c 128
 139.5 13.8333333333 117.666666667 19.6666666667 99 27 c 128
 80.3333333333 34.3333333333 65.8333333333 43 55.5 53 c 128
 45.1666666667 63 40 73.6666666667 40 85 c 0
120 85 m 256
 120 77.6666666667 123.166666667 70.8333333333 129.5 64.5 c 128
 135.833333333 58.1666666667 144.666666667 52.8333333333 156 48.5 c 128
 167.333333333 44.1666666667 180.666666667 40.6666666667 196 38 c 128
 211.333333333 35.3333333333 227.666666667 34 245 34 c 0
 263 34 279.5 35.3333333333 294.5 38 c 128
 309.5 40.6666666667 322.666666667 44.1666666667 334 48.5 c 128
 345.333333333 52.8333333333 354.166666667 58.1666666667 360.5 64.5 c 128
 366.833333333 70.8333333333 370 77.6666666667 370 85 c 256
 370 92.3333333333 366.833333333 99.1666666667 360.5 105.5 c 128
 354.166666667 111.833333333 345.333333333 117.333333333 334 122 c 128
 322.666666667 126.666666667 309.5 130.333333333 294.5 133 c 128
 279.5 135.666666667 263 137 245 137 c 0
 227.666666667 137 211.333333333 135.666666667 196 133 c 128
 180.666666667 130.333333333 167.333333333 126.666666667 156 122 c 128
 144.666666667 117.333333333 135.833333333 111.833333333 129.5 105.5 c 128
 123.166666667 99.1666666667 120 92.3333333333 120 85 c 256
40 272 m 0
 40 284 45.1666666667 295 55.5 305 c 128
 65.8333333333 315 80.3333333333 323.833333333 99 331.5 c 128
 117.666666667 339.166666667 139.5 345 164.5 349 c 128
 189.5 353 216.333333333 355 245 355 c 0
 274.333333333 355 301.5 353 326.5 349 c 128
 351.5 345 373.166666667 339.166666667 391.5 331.5 c 128
 409.833333333 323.833333333 424.333333333 315 435 305 c 128
 445.666666667 295 451 284 451 272 c 0
 451 260.666666667 445.666666667 250 435 240 c 128
 424.333333333 230 409.833333333 221.333333333 391.5 214 c 128
 373.166666667 206.666666667 351.5 200.666666667 326.5 196 c 128
 301.5 191.333333333 274.333333333 189 245 189 c 0
 216.333333333 189 189.5 191.333333333 164.5 196 c 128
 139.5 200.666666667 117.666666667 206.666666667 99 214 c 128
 80.3333333333 221.333333333 65.8333333333 230 55.5 240 c 128
 45.1666666667 250 40 260.666666667 40 272 c 0
120 272 m 256
 120 264.666666667 123.166666667 257.833333333 129.5 251.5 c 128
 135.833333333 245.166666667 144.666666667 239.666666667 156 235 c 128
 167.333333333 230.333333333 180.666666667 226.666666667 196 224 c 128
 211.333333333 221.333333333 227.666666667 220 245 220 c 0
 263 220 279.5 221.333333333 294.5 224 c 128
 309.5 226.666666667 322.666666667 230.333333333 334 235 c 128
 345.333333333 239.666666667 354.166666667 245.166666667 360.5 251.5 c 128
 366.833333333 257.833333333 370 264.666666667 370 272 c 256
 370 279.333333333 366.833333333 286.166666667 360.5 292.5 c 128
 354.166666667 298.833333333 345.333333333 304.333333333 334 309 c 128
 322.666666667 313.666666667 309.5 317.333333333 294.5 320 c 128
 279.5 322.666666667 263 324 245 324 c 0
 227.666666667 324 211.333333333 322.666666667 196 320 c 128
 180.666666667 317.333333333 167.333333333 313.666666667 156 309 c 128
 144.666666667 304.333333333 135.833333333 298.833333333 129.5 292.5 c 128
 123.166666667 286.166666667 120 279.333333333 120 272 c 256
40 461 m 256
 40 472.333333333 45.1666666667 483.166666667 55.5 493.5 c 128
 65.8333333333 503.833333333 80.3333333333 512.666666667 99 520 c 128
 117.666666667 527.333333333 139.5 533.166666667 164.5 537.5 c 128
 189.5 541.833333333 216.333333333 544 245 544 c 0
 274.333333333 544 301.5 541.833333333 326.5 537.5 c 128
 351.5 533.166666667 373.166666667 527.333333333 391.5 520 c 128
 409.833333333 512.666666667 424.333333333 503.833333333 435 493.5 c 128
 445.666666667 483.166666667 451 472.333333333 451 461 c 256
 451 449.666666667 445.666666667 439 435 429 c 128
 424.333333333 419 409.833333333 410.166666667 391.5 402.5 c 128
 373.166666667 394.833333333 351.5 388.833333333 326.5 384.5 c 128
 301.5 380.166666667 274.333333333 378 245 378 c 0
 216.333333333 378 189.5 380.166666667 164.5 384.5 c 128
 139.5 388.833333333 117.666666667 394.833333333 99 402.5 c 128
 80.3333333333 410.166666667 65.8333333333 419 55.5 429 c 128
 45.1666666667 439 40 449.666666667 40 461 c 256
40 648 m 256
 40 659.333333333 45.1666666667 670.166666667 55.5 680.5 c 128
 65.8333333333 690.833333333 80.3333333333 699.666666667 99 707 c 128
 117.666666667 714.333333333 139.5 720.166666667 164.5 724.5 c 128
 189.5 728.833333333 216.333333333 731 245 731 c 0
 274.333333333 731 301.5 728.833333333 326.5 724.5 c 128
 351.5 720.166666667 373.166666667 714.333333333 391.5 707 c 128
 409.833333333 699.666666667 424.333333333 690.833333333 435 680.5 c 128
 445.666666667 670.166666667 451 659.333333333 451 648 c 256
 451 636.666666667 445.666666667 626 435 616 c 128
 424.333333333 606 409.833333333 597.166666667 391.5 589.5 c 128
 373.166666667 581.833333333 351.5 575.833333333 326.5 571.5 c 128
 301.5 567.166666667 274.333333333 565 245 565 c 0
 216.333333333 565 189.5 567.166666667 164.5 571.5 c 128
 139.5 575.833333333 117.666666667 581.833333333 99 589.5 c 128
 80.3333333333 597.166666667 65.8333333333 606 55.5 616 c 128
 45.1666666667 626 40 636.666666667 40 648 c 256
120 648 m 0
 120 640.666666667 123.166666667 633.833333333 129.5 627.5 c 128
 135.833333333 621.166666667 144.666666667 615.666666667 156 611 c 128
 167.333333333 606.333333333 180.666666667 602.666666667 196 600 c 128
 211.333333333 597.333333333 227.666666667 596 245 596 c 0
 263 596 279.5 597.333333333 294.5 600 c 128
 309.5 602.666666667 322.666666667 606.333333333 334 611 c 128
 345.333333333 615.666666667 354.166666667 621.166666667 360.5 627.5 c 128
 366.833333333 633.833333333 370 640.666666667 370 648 c 0
 370 654.666666667 366.833333333 661.333333333 360.5 668 c 128
 354.166666667 674.666666667 345.333333333 680.333333333 334 685 c 128
 322.666666667 689.666666667 309.5 693.333333333 294.5 696 c 128
 279.5 698.666666667 263 700 245 700 c 0
 227.666666667 700 211.333333333 698.666666667 196 696 c 128
 180.666666667 693.333333333 167.333333333 689.666666667 156 685 c 128
 144.666666667 680.333333333 135.833333333 674.666666667 129.5 668 c 128
 123.166666667 661.333333333 120 654.666666667 120 648 c 0
EndSplineSet
EndChar

StartChar: uni0095
Encoding: 149 149 156
Width: 480
Flags: HW
LayerCount: 2
Fore
SplineSet
40 85 m 0
 40 97 45.1666666667 108 55.5 118 c 128
 65.8333333333 128 80.3333333333 136.833333333 99 144.5 c 128
 117.666666667 152.166666667 139.5 158.166666667 164.5 162.5 c 128
 189.5 166.833333333 216.333333333 169 245 169 c 0
 274.333333333 169 301.5 166.833333333 326.5 162.5 c 128
 351.5 158.166666667 373.166666667 152.166666667 391.5 144.5 c 128
 409.833333333 136.833333333 424.333333333 128 435 118 c 128
 445.666666667 108 451 97 451 85 c 0
 451 73.6666666667 445.666666667 63 435 53 c 128
 424.333333333 43 409.833333333 34.3333333333 391.5 27 c 128
 373.166666667 19.6666666667 351.5 13.8333333333 326.5 9.5 c 128
 301.5 5.16666666667 274.333333333 3 245 3 c 0
 216.333333333 3 189.5 5.16666666667 164.5 9.5 c 128
 139.5 13.8333333333 117.666666667 19.6666666667 99 27 c 128
 80.3333333333 34.3333333333 65.8333333333 43 55.5 53 c 128
 45.1666666667 63 40 73.6666666667 40 85 c 0
40 272 m 0
 40 284 45.1666666667 295 55.5 305 c 128
 65.8333333333 315 80.3333333333 323.833333333 99 331.5 c 128
 117.666666667 339.166666667 139.5 345 164.5 349 c 128
 189.5 353 216.333333333 355 245 355 c 0
 274.333333333 355 301.5 353 326.5 349 c 128
 351.5 345 373.166666667 339.166666667 391.5 331.5 c 128
 409.833333333 323.833333333 424.333333333 315 435 305 c 128
 445.666666667 295 451 284 451 272 c 0
 451 260.666666667 445.666666667 250 435 240 c 128
 424.333333333 230 409.833333333 221.333333333 391.5 214 c 128
 373.166666667 206.666666667 351.5 200.666666667 326.5 196 c 128
 301.5 191.333333333 274.333333333 189 245 189 c 0
 216.333333333 189 189.5 191.333333333 164.5 196 c 128
 139.5 200.666666667 117.666666667 206.666666667 99 214 c 128
 80.3333333333 221.333333333 65.8333333333 230 55.5 240 c 128
 45.1666666667 250 40 260.666666667 40 272 c 0
120 272 m 256
 120 264.666666667 123.166666667 257.833333333 129.5 251.5 c 128
 135.833333333 245.166666667 144.666666667 239.666666667 156 235 c 128
 167.333333333 230.333333333 180.666666667 226.666666667 196 224 c 128
 211.333333333 221.333333333 227.666666667 220 245 220 c 0
 263 220 279.5 221.333333333 294.5 224 c 128
 309.5 226.666666667 322.666666667 230.333333333 334 235 c 128
 345.333333333 239.666666667 354.166666667 245.166666667 360.5 251.5 c 128
 366.833333333 257.833333333 370 264.666666667 370 272 c 256
 370 279.333333333 366.833333333 286.166666667 360.5 292.5 c 128
 354.166666667 298.833333333 345.333333333 304.333333333 334 309 c 128
 322.666666667 313.666666667 309.5 317.333333333 294.5 320 c 128
 279.5 322.666666667 263 324 245 324 c 0
 227.666666667 324 211.333333333 322.666666667 196 320 c 128
 180.666666667 317.333333333 167.333333333 313.666666667 156 309 c 128
 144.666666667 304.333333333 135.833333333 298.833333333 129.5 292.5 c 128
 123.166666667 286.166666667 120 279.333333333 120 272 c 256
40 461 m 256
 40 472.333333333 45.1666666667 483.166666667 55.5 493.5 c 128
 65.8333333333 503.833333333 80.3333333333 512.666666667 99 520 c 128
 117.666666667 527.333333333 139.5 533.166666667 164.5 537.5 c 128
 189.5 541.833333333 216.333333333 544 245 544 c 0
 274.333333333 544 301.5 541.833333333 326.5 537.5 c 128
 351.5 533.166666667 373.166666667 527.333333333 391.5 520 c 128
 409.833333333 512.666666667 424.333333333 503.833333333 435 493.5 c 128
 445.666666667 483.166666667 451 472.333333333 451 461 c 256
 451 449.666666667 445.666666667 439 435 429 c 128
 424.333333333 419 409.833333333 410.166666667 391.5 402.5 c 128
 373.166666667 394.833333333 351.5 388.833333333 326.5 384.5 c 128
 301.5 380.166666667 274.333333333 378 245 378 c 0
 216.333333333 378 189.5 380.166666667 164.5 384.5 c 128
 139.5 388.833333333 117.666666667 394.833333333 99 402.5 c 128
 80.3333333333 410.166666667 65.8333333333 419 55.5 429 c 128
 45.1666666667 439 40 449.666666667 40 461 c 256
40 648 m 256
 40 659.333333333 45.1666666667 670.166666667 55.5 680.5 c 128
 65.8333333333 690.833333333 80.3333333333 699.666666667 99 707 c 128
 117.666666667 714.333333333 139.5 720.166666667 164.5 724.5 c 128
 189.5 728.833333333 216.333333333 731 245 731 c 0
 274.333333333 731 301.5 728.833333333 326.5 724.5 c 128
 351.5 720.166666667 373.166666667 714.333333333 391.5 707 c 128
 409.833333333 699.666666667 424.333333333 690.833333333 435 680.5 c 128
 445.666666667 670.166666667 451 659.333333333 451 648 c 256
 451 636.666666667 445.666666667 626 435 616 c 128
 424.333333333 606 409.833333333 597.166666667 391.5 589.5 c 128
 373.166666667 581.833333333 351.5 575.833333333 326.5 571.5 c 128
 301.5 567.166666667 274.333333333 565 245 565 c 0
 216.333333333 565 189.5 567.166666667 164.5 571.5 c 128
 139.5 575.833333333 117.666666667 581.833333333 99 589.5 c 128
 80.3333333333 597.166666667 65.8333333333 606 55.5 616 c 128
 45.1666666667 626 40 636.666666667 40 648 c 256
120 648 m 0
 120 640.666666667 123.166666667 633.833333333 129.5 627.5 c 128
 135.833333333 621.166666667 144.666666667 615.666666667 156 611 c 128
 167.333333333 606.333333333 180.666666667 602.666666667 196 600 c 128
 211.333333333 597.333333333 227.666666667 596 245 596 c 0
 263 596 279.5 597.333333333 294.5 600 c 128
 309.5 602.666666667 322.666666667 606.333333333 334 611 c 128
 345.333333333 615.666666667 354.166666667 621.166666667 360.5 627.5 c 128
 366.833333333 633.833333333 370 640.666666667 370 648 c 0
 370 654.666666667 366.833333333 661.333333333 360.5 668 c 128
 354.166666667 674.666666667 345.333333333 680.333333333 334 685 c 128
 322.666666667 689.666666667 309.5 693.333333333 294.5 696 c 128
 279.5 698.666666667 263 700 245 700 c 0
 227.666666667 700 211.333333333 698.666666667 196 696 c 128
 180.666666667 693.333333333 167.333333333 689.666666667 156 685 c 128
 144.666666667 680.333333333 135.833333333 674.666666667 129.5 668 c 128
 123.166666667 661.333333333 120 654.666666667 120 648 c 0
EndSplineSet
EndChar

StartChar: uni0096
Encoding: 150 150 157
Width: 480
Flags: HW
LayerCount: 2
Fore
SplineSet
40 85 m 0
 40 97 45.1666666667 108 55.5 118 c 128
 65.8333333333 128 80.3333333333 136.833333333 99 144.5 c 128
 117.666666667 152.166666667 139.5 158.166666667 164.5 162.5 c 128
 189.5 166.833333333 216.333333333 169 245 169 c 0
 274.333333333 169 301.5 166.833333333 326.5 162.5 c 128
 351.5 158.166666667 373.166666667 152.166666667 391.5 144.5 c 128
 409.833333333 136.833333333 424.333333333 128 435 118 c 128
 445.666666667 108 451 97 451 85 c 0
 451 73.6666666667 445.666666667 63 435 53 c 128
 424.333333333 43 409.833333333 34.3333333333 391.5 27 c 128
 373.166666667 19.6666666667 351.5 13.8333333333 326.5 9.5 c 128
 301.5 5.16666666667 274.333333333 3 245 3 c 0
 216.333333333 3 189.5 5.16666666667 164.5 9.5 c 128
 139.5 13.8333333333 117.666666667 19.6666666667 99 27 c 128
 80.3333333333 34.3333333333 65.8333333333 43 55.5 53 c 128
 45.1666666667 63 40 73.6666666667 40 85 c 0
120 85 m 256
 120 77.6666666667 123.166666667 70.8333333333 129.5 64.5 c 128
 135.833333333 58.1666666667 144.666666667 52.8333333333 156 48.5 c 128
 167.333333333 44.1666666667 180.666666667 40.6666666667 196 38 c 128
 211.333333333 35.3333333333 227.666666667 34 245 34 c 0
 263 34 279.5 35.3333333333 294.5 38 c 128
 309.5 40.6666666667 322.666666667 44.1666666667 334 48.5 c 128
 345.333333333 52.8333333333 354.166666667 58.1666666667 360.5 64.5 c 128
 366.833333333 70.8333333333 370 77.6666666667 370 85 c 256
 370 92.3333333333 366.833333333 99.1666666667 360.5 105.5 c 128
 354.166666667 111.833333333 345.333333333 117.333333333 334 122 c 128
 322.666666667 126.666666667 309.5 130.333333333 294.5 133 c 128
 279.5 135.666666667 263 137 245 137 c 0
 227.666666667 137 211.333333333 135.666666667 196 133 c 128
 180.666666667 130.333333333 167.333333333 126.666666667 156 122 c 128
 144.666666667 117.333333333 135.833333333 111.833333333 129.5 105.5 c 128
 123.166666667 99.1666666667 120 92.3333333333 120 85 c 256
40 272 m 0
 40 284 45.1666666667 295 55.5 305 c 128
 65.8333333333 315 80.3333333333 323.833333333 99 331.5 c 128
 117.666666667 339.166666667 139.5 345 164.5 349 c 128
 189.5 353 216.333333333 355 245 355 c 0
 274.333333333 355 301.5 353 326.5 349 c 128
 351.5 345 373.166666667 339.166666667 391.5 331.5 c 128
 409.833333333 323.833333333 424.333333333 315 435 305 c 128
 445.666666667 295 451 284 451 272 c 0
 451 260.666666667 445.666666667 250 435 240 c 128
 424.333333333 230 409.833333333 221.333333333 391.5 214 c 128
 373.166666667 206.666666667 351.5 200.666666667 326.5 196 c 128
 301.5 191.333333333 274.333333333 189 245 189 c 0
 216.333333333 189 189.5 191.333333333 164.5 196 c 128
 139.5 200.666666667 117.666666667 206.666666667 99 214 c 128
 80.3333333333 221.333333333 65.8333333333 230 55.5 240 c 128
 45.1666666667 250 40 260.666666667 40 272 c 0
40 461 m 256
 40 472.333333333 45.1666666667 483.166666667 55.5 493.5 c 128
 65.8333333333 503.833333333 80.3333333333 512.666666667 99 520 c 128
 117.666666667 527.333333333 139.5 533.166666667 164.5 537.5 c 128
 189.5 541.833333333 216.333333333 544 245 544 c 0
 274.333333333 544 301.5 541.833333333 326.5 537.5 c 128
 351.5 533.166666667 373.166666667 527.333333333 391.5 520 c 128
 409.833333333 512.666666667 424.333333333 503.833333333 435 493.5 c 128
 445.666666667 483.166666667 451 472.333333333 451 461 c 256
 451 449.666666667 445.666666667 439 435 429 c 128
 424.333333333 419 409.833333333 410.166666667 391.5 402.5 c 128
 373.166666667 394.833333333 351.5 388.833333333 326.5 384.5 c 128
 301.5 380.166666667 274.333333333 378 245 378 c 0
 216.333333333 378 189.5 380.166666667 164.5 384.5 c 128
 139.5 388.833333333 117.666666667 394.833333333 99 402.5 c 128
 80.3333333333 410.166666667 65.8333333333 419 55.5 429 c 128
 45.1666666667 439 40 449.666666667 40 461 c 256
40 648 m 256
 40 659.333333333 45.1666666667 670.166666667 55.5 680.5 c 128
 65.8333333333 690.833333333 80.3333333333 699.666666667 99 707 c 128
 117.666666667 714.333333333 139.5 720.166666667 164.5 724.5 c 128
 189.5 728.833333333 216.333333333 731 245 731 c 0
 274.333333333 731 301.5 728.833333333 326.5 724.5 c 128
 351.5 720.166666667 373.166666667 714.333333333 391.5 707 c 128
 409.833333333 699.666666667 424.333333333 690.833333333 435 680.5 c 128
 445.666666667 670.166666667 451 659.333333333 451 648 c 256
 451 636.666666667 445.666666667 626 435 616 c 128
 424.333333333 606 409.833333333 597.166666667 391.5 589.5 c 128
 373.166666667 581.833333333 351.5 575.833333333 326.5 571.5 c 128
 301.5 567.166666667 274.333333333 565 245 565 c 0
 216.333333333 565 189.5 567.166666667 164.5 571.5 c 128
 139.5 575.833333333 117.666666667 581.833333333 99 589.5 c 128
 80.3333333333 597.166666667 65.8333333333 606 55.5 616 c 128
 45.1666666667 626 40 636.666666667 40 648 c 256
120 648 m 0
 120 640.666666667 123.166666667 633.833333333 129.5 627.5 c 128
 135.833333333 621.166666667 144.666666667 615.666666667 156 611 c 128
 167.333333333 606.333333333 180.666666667 602.666666667 196 600 c 128
 211.333333333 597.333333333 227.666666667 596 245 596 c 0
 263 596 279.5 597.333333333 294.5 600 c 128
 309.5 602.666666667 322.666666667 606.333333333 334 611 c 128
 345.333333333 615.666666667 354.166666667 621.166666667 360.5 627.5 c 128
 366.833333333 633.833333333 370 640.666666667 370 648 c 0
 370 654.666666667 366.833333333 661.333333333 360.5 668 c 128
 354.166666667 674.666666667 345.333333333 680.333333333 334 685 c 128
 322.666666667 689.666666667 309.5 693.333333333 294.5 696 c 128
 279.5 698.666666667 263 700 245 700 c 0
 227.666666667 700 211.333333333 698.666666667 196 696 c 128
 180.666666667 693.333333333 167.333333333 689.666666667 156 685 c 128
 144.666666667 680.333333333 135.833333333 674.666666667 129.5 668 c 128
 123.166666667 661.333333333 120 654.666666667 120 648 c 0
EndSplineSet
EndChar

StartChar: uni0097
Encoding: 151 151 158
Width: 480
Flags: HW
LayerCount: 2
Fore
SplineSet
40 85 m 0
 40 97 45.1666666667 108 55.5 118 c 128
 65.8333333333 128 80.3333333333 136.833333333 99 144.5 c 128
 117.666666667 152.166666667 139.5 158.166666667 164.5 162.5 c 128
 189.5 166.833333333 216.333333333 169 245 169 c 0
 274.333333333 169 301.5 166.833333333 326.5 162.5 c 128
 351.5 158.166666667 373.166666667 152.166666667 391.5 144.5 c 128
 409.833333333 136.833333333 424.333333333 128 435 118 c 128
 445.666666667 108 451 97 451 85 c 0
 451 73.6666666667 445.666666667 63 435 53 c 128
 424.333333333 43 409.833333333 34.3333333333 391.5 27 c 128
 373.166666667 19.6666666667 351.5 13.8333333333 326.5 9.5 c 128
 301.5 5.16666666667 274.333333333 3 245 3 c 0
 216.333333333 3 189.5 5.16666666667 164.5 9.5 c 128
 139.5 13.8333333333 117.666666667 19.6666666667 99 27 c 128
 80.3333333333 34.3333333333 65.8333333333 43 55.5 53 c 128
 45.1666666667 63 40 73.6666666667 40 85 c 0
40 272 m 0
 40 284 45.1666666667 295 55.5 305 c 128
 65.8333333333 315 80.3333333333 323.833333333 99 331.5 c 128
 117.666666667 339.166666667 139.5 345 164.5 349 c 128
 189.5 353 216.333333333 355 245 355 c 0
 274.333333333 355 301.5 353 326.5 349 c 128
 351.5 345 373.166666667 339.166666667 391.5 331.5 c 128
 409.833333333 323.833333333 424.333333333 315 435 305 c 128
 445.666666667 295 451 284 451 272 c 0
 451 260.666666667 445.666666667 250 435 240 c 128
 424.333333333 230 409.833333333 221.333333333 391.5 214 c 128
 373.166666667 206.666666667 351.5 200.666666667 326.5 196 c 128
 301.5 191.333333333 274.333333333 189 245 189 c 0
 216.333333333 189 189.5 191.333333333 164.5 196 c 128
 139.5 200.666666667 117.666666667 206.666666667 99 214 c 128
 80.3333333333 221.333333333 65.8333333333 230 55.5 240 c 128
 45.1666666667 250 40 260.666666667 40 272 c 0
40 461 m 256
 40 472.333333333 45.1666666667 483.166666667 55.5 493.5 c 128
 65.8333333333 503.833333333 80.3333333333 512.666666667 99 520 c 128
 117.666666667 527.333333333 139.5 533.166666667 164.5 537.5 c 128
 189.5 541.833333333 216.333333333 544 245 544 c 0
 274.333333333 544 301.5 541.833333333 326.5 537.5 c 128
 351.5 533.166666667 373.166666667 527.333333333 391.5 520 c 128
 409.833333333 512.666666667 424.333333333 503.833333333 435 493.5 c 128
 445.666666667 483.166666667 451 472.333333333 451 461 c 256
 451 449.666666667 445.666666667 439 435 429 c 128
 424.333333333 419 409.833333333 410.166666667 391.5 402.5 c 128
 373.166666667 394.833333333 351.5 388.833333333 326.5 384.5 c 128
 301.5 380.166666667 274.333333333 378 245 378 c 0
 216.333333333 378 189.5 380.166666667 164.5 384.5 c 128
 139.5 388.833333333 117.666666667 394.833333333 99 402.5 c 128
 80.3333333333 410.166666667 65.8333333333 419 55.5 429 c 128
 45.1666666667 439 40 449.666666667 40 461 c 256
40 648 m 256
 40 659.333333333 45.1666666667 670.166666667 55.5 680.5 c 128
 65.8333333333 690.833333333 80.3333333333 699.666666667 99 707 c 128
 117.666666667 714.333333333 139.5 720.166666667 164.5 724.5 c 128
 189.5 728.833333333 216.333333333 731 245 731 c 0
 274.333333333 731 301.5 728.833333333 326.5 724.5 c 128
 351.5 720.166666667 373.166666667 714.333333333 391.5 707 c 128
 409.833333333 699.666666667 424.333333333 690.833333333 435 680.5 c 128
 445.666666667 670.166666667 451 659.333333333 451 648 c 256
 451 636.666666667 445.666666667 626 435 616 c 128
 424.333333333 606 409.833333333 597.166666667 391.5 589.5 c 128
 373.166666667 581.833333333 351.5 575.833333333 326.5 571.5 c 128
 301.5 567.166666667 274.333333333 565 245 565 c 0
 216.333333333 565 189.5 567.166666667 164.5 571.5 c 128
 139.5 575.833333333 117.666666667 581.833333333 99 589.5 c 128
 80.3333333333 597.166666667 65.8333333333 606 55.5 616 c 128
 45.1666666667 626 40 636.666666667 40 648 c 256
120 648 m 0
 120 640.666666667 123.166666667 633.833333333 129.5 627.5 c 128
 135.833333333 621.166666667 144.666666667 615.666666667 156 611 c 128
 167.333333333 606.333333333 180.666666667 602.666666667 196 600 c 128
 211.333333333 597.333333333 227.666666667 596 245 596 c 0
 263 596 279.5 597.333333333 294.5 600 c 128
 309.5 602.666666667 322.666666667 606.333333333 334 611 c 128
 345.333333333 615.666666667 354.166666667 621.166666667 360.5 627.5 c 128
 366.833333333 633.833333333 370 640.666666667 370 648 c 0
 370 654.666666667 366.833333333 661.333333333 360.5 668 c 128
 354.166666667 674.666666667 345.333333333 680.333333333 334 685 c 128
 322.666666667 689.666666667 309.5 693.333333333 294.5 696 c 128
 279.5 698.666666667 263 700 245 700 c 0
 227.666666667 700 211.333333333 698.666666667 196 696 c 128
 180.666666667 693.333333333 167.333333333 689.666666667 156 685 c 128
 144.666666667 680.333333333 135.833333333 674.666666667 129.5 668 c 128
 123.166666667 661.333333333 120 654.666666667 120 648 c 0
EndSplineSet
EndChar

StartChar: uni0098
Encoding: 152 152 159
Width: 480
Flags: HW
LayerCount: 2
Fore
SplineSet
40 85 m 0
 40 97 45.1666666667 108 55.5 118 c 128
 65.8333333333 128 80.3333333333 136.833333333 99 144.5 c 128
 117.666666667 152.166666667 139.5 158.166666667 164.5 162.5 c 128
 189.5 166.833333333 216.333333333 169 245 169 c 0
 274.333333333 169 301.5 166.833333333 326.5 162.5 c 128
 351.5 158.166666667 373.166666667 152.166666667 391.5 144.5 c 128
 409.833333333 136.833333333 424.333333333 128 435 118 c 128
 445.666666667 108 451 97 451 85 c 0
 451 73.6666666667 445.666666667 63 435 53 c 128
 424.333333333 43 409.833333333 34.3333333333 391.5 27 c 128
 373.166666667 19.6666666667 351.5 13.8333333333 326.5 9.5 c 128
 301.5 5.16666666667 274.333333333 3 245 3 c 0
 216.333333333 3 189.5 5.16666666667 164.5 9.5 c 128
 139.5 13.8333333333 117.666666667 19.6666666667 99 27 c 128
 80.3333333333 34.3333333333 65.8333333333 43 55.5 53 c 128
 45.1666666667 63 40 73.6666666667 40 85 c 0
120 85 m 256
 120 77.6666666667 123.166666667 70.8333333333 129.5 64.5 c 128
 135.833333333 58.1666666667 144.666666667 52.8333333333 156 48.5 c 128
 167.333333333 44.1666666667 180.666666667 40.6666666667 196 38 c 128
 211.333333333 35.3333333333 227.666666667 34 245 34 c 0
 263 34 279.5 35.3333333333 294.5 38 c 128
 309.5 40.6666666667 322.666666667 44.1666666667 334 48.5 c 128
 345.333333333 52.8333333333 354.166666667 58.1666666667 360.5 64.5 c 128
 366.833333333 70.8333333333 370 77.6666666667 370 85 c 256
 370 92.3333333333 366.833333333 99.1666666667 360.5 105.5 c 128
 354.166666667 111.833333333 345.333333333 117.333333333 334 122 c 128
 322.666666667 126.666666667 309.5 130.333333333 294.5 133 c 128
 279.5 135.666666667 263 137 245 137 c 0
 227.666666667 137 211.333333333 135.666666667 196 133 c 128
 180.666666667 130.333333333 167.333333333 126.666666667 156 122 c 128
 144.666666667 117.333333333 135.833333333 111.833333333 129.5 105.5 c 128
 123.166666667 99.1666666667 120 92.3333333333 120 85 c 256
40 272 m 0
 40 284 45.1666666667 295 55.5 305 c 128
 65.8333333333 315 80.3333333333 323.833333333 99 331.5 c 128
 117.666666667 339.166666667 139.5 345 164.5 349 c 128
 189.5 353 216.333333333 355 245 355 c 0
 274.333333333 355 301.5 353 326.5 349 c 128
 351.5 345 373.166666667 339.166666667 391.5 331.5 c 128
 409.833333333 323.833333333 424.333333333 315 435 305 c 128
 445.666666667 295 451 284 451 272 c 0
 451 260.666666667 445.666666667 250 435 240 c 128
 424.333333333 230 409.833333333 221.333333333 391.5 214 c 128
 373.166666667 206.666666667 351.5 200.666666667 326.5 196 c 128
 301.5 191.333333333 274.333333333 189 245 189 c 0
 216.333333333 189 189.5 191.333333333 164.5 196 c 128
 139.5 200.666666667 117.666666667 206.666666667 99 214 c 128
 80.3333333333 221.333333333 65.8333333333 230 55.5 240 c 128
 45.1666666667 250 40 260.666666667 40 272 c 0
120 272 m 256
 120 264.666666667 123.166666667 257.833333333 129.5 251.5 c 128
 135.833333333 245.166666667 144.666666667 239.666666667 156 235 c 128
 167.333333333 230.333333333 180.666666667 226.666666667 196 224 c 128
 211.333333333 221.333333333 227.666666667 220 245 220 c 0
 263 220 279.5 221.333333333 294.5 224 c 128
 309.5 226.666666667 322.666666667 230.333333333 334 235 c 128
 345.333333333 239.666666667 354.166666667 245.166666667 360.5 251.5 c 128
 366.833333333 257.833333333 370 264.666666667 370 272 c 256
 370 279.333333333 366.833333333 286.166666667 360.5 292.5 c 128
 354.166666667 298.833333333 345.333333333 304.333333333 334 309 c 128
 322.666666667 313.666666667 309.5 317.333333333 294.5 320 c 128
 279.5 322.666666667 263 324 245 324 c 0
 227.666666667 324 211.333333333 322.666666667 196 320 c 128
 180.666666667 317.333333333 167.333333333 313.666666667 156 309 c 128
 144.666666667 304.333333333 135.833333333 298.833333333 129.5 292.5 c 128
 123.166666667 286.166666667 120 279.333333333 120 272 c 256
40 461 m 256
 40 472.333333333 45.1666666667 483.166666667 55.5 493.5 c 128
 65.8333333333 503.833333333 80.3333333333 512.666666667 99 520 c 128
 117.666666667 527.333333333 139.5 533.166666667 164.5 537.5 c 128
 189.5 541.833333333 216.333333333 544 245 544 c 0
 274.333333333 544 301.5 541.833333333 326.5 537.5 c 128
 351.5 533.166666667 373.166666667 527.333333333 391.5 520 c 128
 409.833333333 512.666666667 424.333333333 503.833333333 435 493.5 c 128
 445.666666667 483.166666667 451 472.333333333 451 461 c 256
 451 449.666666667 445.666666667 439 435 429 c 128
 424.333333333 419 409.833333333 410.166666667 391.5 402.5 c 128
 373.166666667 394.833333333 351.5 388.833333333 326.5 384.5 c 128
 301.5 380.166666667 274.333333333 378 245 378 c 0
 216.333333333 378 189.5 380.166666667 164.5 384.5 c 128
 139.5 388.833333333 117.666666667 394.833333333 99 402.5 c 128
 80.3333333333 410.166666667 65.8333333333 419 55.5 429 c 128
 45.1666666667 439 40 449.666666667 40 461 c 256
120 461 m 256
 120 453.666666667 123.166666667 446.833333333 129.5 440.5 c 128
 135.833333333 434.166666667 144.666666667 428.666666667 156 424 c 128
 167.333333333 419.333333333 180.666666667 415.666666667 196 413 c 128
 211.333333333 410.333333333 227.666666667 409 245 409 c 0
 263 409 279.5 410.333333333 294.5 413 c 128
 309.5 415.666666667 322.666666667 419.333333333 334 424 c 128
 345.333333333 428.666666667 354.166666667 434.166666667 360.5 440.5 c 128
 366.833333333 446.833333333 370 453.666666667 370 461 c 256
 370 468.333333333 366.833333333 475.166666667 360.5 481.5 c 128
 354.166666667 487.833333333 345.333333333 493.333333333 334 498 c 128
 322.666666667 502.666666667 309.5 506.333333333 294.5 509 c 128
 279.5 511.666666667 263 513 245 513 c 0
 227.666666667 513 211.333333333 511.666666667 196 509 c 128
 180.666666667 506.333333333 167.333333333 502.666666667 156 498 c 128
 144.666666667 493.333333333 135.833333333 487.833333333 129.5 481.5 c 128
 123.166666667 475.166666667 120 468.333333333 120 461 c 256
40 648 m 256
 40 659.333333333 45.1666666667 670.166666667 55.5 680.5 c 128
 65.8333333333 690.833333333 80.3333333333 699.666666667 99 707 c 128
 117.666666667 714.333333333 139.5 720.166666667 164.5 724.5 c 128
 189.5 728.833333333 216.333333333 731 245 731 c 0
 274.333333333 731 301.5 728.833333333 326.5 724.5 c 128
 351.5 720.166666667 373.166666667 714.333333333 391.5 707 c 128
 409.833333333 699.666666667 424.333333333 690.833333333 435 680.5 c 128
 445.666666667 670.166666667 451 659.333333333 451 648 c 256
 451 636.666666667 445.666666667 626 435 616 c 128
 424.333333333 606 409.833333333 597.166666667 391.5 589.5 c 128
 373.166666667 581.833333333 351.5 575.833333333 326.5 571.5 c 128
 301.5 567.166666667 274.333333333 565 245 565 c 0
 216.333333333 565 189.5 567.166666667 164.5 571.5 c 128
 139.5 575.833333333 117.666666667 581.833333333 99 589.5 c 128
 80.3333333333 597.166666667 65.8333333333 606 55.5 616 c 128
 45.1666666667 626 40 636.666666667 40 648 c 256
EndSplineSet
EndChar

StartChar: uni0099
Encoding: 153 153 160
Width: 480
Flags: HW
LayerCount: 2
Fore
SplineSet
40 85 m 0
 40 97 45.1666666667 108 55.5 118 c 128
 65.8333333333 128 80.3333333333 136.833333333 99 144.5 c 128
 117.666666667 152.166666667 139.5 158.166666667 164.5 162.5 c 128
 189.5 166.833333333 216.333333333 169 245 169 c 0
 274.333333333 169 301.5 166.833333333 326.5 162.5 c 128
 351.5 158.166666667 373.166666667 152.166666667 391.5 144.5 c 128
 409.833333333 136.833333333 424.333333333 128 435 118 c 128
 445.666666667 108 451 97 451 85 c 0
 451 73.6666666667 445.666666667 63 435 53 c 128
 424.333333333 43 409.833333333 34.3333333333 391.5 27 c 128
 373.166666667 19.6666666667 351.5 13.8333333333 326.5 9.5 c 128
 301.5 5.16666666667 274.333333333 3 245 3 c 0
 216.333333333 3 189.5 5.16666666667 164.5 9.5 c 128
 139.5 13.8333333333 117.666666667 19.6666666667 99 27 c 128
 80.3333333333 34.3333333333 65.8333333333 43 55.5 53 c 128
 45.1666666667 63 40 73.6666666667 40 85 c 0
40 272 m 0
 40 284 45.1666666667 295 55.5 305 c 128
 65.8333333333 315 80.3333333333 323.833333333 99 331.5 c 128
 117.666666667 339.166666667 139.5 345 164.5 349 c 128
 189.5 353 216.333333333 355 245 355 c 0
 274.333333333 355 301.5 353 326.5 349 c 128
 351.5 345 373.166666667 339.166666667 391.5 331.5 c 128
 409.833333333 323.833333333 424.333333333 315 435 305 c 128
 445.666666667 295 451 284 451 272 c 0
 451 260.666666667 445.666666667 250 435 240 c 128
 424.333333333 230 409.833333333 221.333333333 391.5 214 c 128
 373.166666667 206.666666667 351.5 200.666666667 326.5 196 c 128
 301.5 191.333333333 274.333333333 189 245 189 c 0
 216.333333333 189 189.5 191.333333333 164.5 196 c 128
 139.5 200.666666667 117.666666667 206.666666667 99 214 c 128
 80.3333333333 221.333333333 65.8333333333 230 55.5 240 c 128
 45.1666666667 250 40 260.666666667 40 272 c 0
120 272 m 256
 120 264.666666667 123.166666667 257.833333333 129.5 251.5 c 128
 135.833333333 245.166666667 144.666666667 239.666666667 156 235 c 128
 167.333333333 230.333333333 180.666666667 226.666666667 196 224 c 128
 211.333333333 221.333333333 227.666666667 220 245 220 c 0
 263 220 279.5 221.333333333 294.5 224 c 128
 309.5 226.666666667 322.666666667 230.333333333 334 235 c 128
 345.333333333 239.666666667 354.166666667 245.166666667 360.5 251.5 c 128
 366.833333333 257.833333333 370 264.666666667 370 272 c 256
 370 279.333333333 366.833333333 286.166666667 360.5 292.5 c 128
 354.166666667 298.833333333 345.333333333 304.333333333 334 309 c 128
 322.666666667 313.666666667 309.5 317.333333333 294.5 320 c 128
 279.5 322.666666667 263 324 245 324 c 0
 227.666666667 324 211.333333333 322.666666667 196 320 c 128
 180.666666667 317.333333333 167.333333333 313.666666667 156 309 c 128
 144.666666667 304.333333333 135.833333333 298.833333333 129.5 292.5 c 128
 123.166666667 286.166666667 120 279.333333333 120 272 c 256
40 461 m 256
 40 472.333333333 45.1666666667 483.166666667 55.5 493.5 c 128
 65.8333333333 503.833333333 80.3333333333 512.666666667 99 520 c 128
 117.666666667 527.333333333 139.5 533.166666667 164.5 537.5 c 128
 189.5 541.833333333 216.333333333 544 245 544 c 0
 274.333333333 544 301.5 541.833333333 326.5 537.5 c 128
 351.5 533.166666667 373.166666667 527.333333333 391.5 520 c 128
 409.833333333 512.666666667 424.333333333 503.833333333 435 493.5 c 128
 445.666666667 483.166666667 451 472.333333333 451 461 c 256
 451 449.666666667 445.666666667 439 435 429 c 128
 424.333333333 419 409.833333333 410.166666667 391.5 402.5 c 128
 373.166666667 394.833333333 351.5 388.833333333 326.5 384.5 c 128
 301.5 380.166666667 274.333333333 378 245 378 c 0
 216.333333333 378 189.5 380.166666667 164.5 384.5 c 128
 139.5 388.833333333 117.666666667 394.833333333 99 402.5 c 128
 80.3333333333 410.166666667 65.8333333333 419 55.5 429 c 128
 45.1666666667 439 40 449.666666667 40 461 c 256
120 461 m 256
 120 453.666666667 123.166666667 446.833333333 129.5 440.5 c 128
 135.833333333 434.166666667 144.666666667 428.666666667 156 424 c 128
 167.333333333 419.333333333 180.666666667 415.666666667 196 413 c 128
 211.333333333 410.333333333 227.666666667 409 245 409 c 0
 263 409 279.5 410.333333333 294.5 413 c 128
 309.5 415.666666667 322.666666667 419.333333333 334 424 c 128
 345.333333333 428.666666667 354.166666667 434.166666667 360.5 440.5 c 128
 366.833333333 446.833333333 370 453.666666667 370 461 c 256
 370 468.333333333 366.833333333 475.166666667 360.5 481.5 c 128
 354.166666667 487.833333333 345.333333333 493.333333333 334 498 c 128
 322.666666667 502.666666667 309.5 506.333333333 294.5 509 c 128
 279.5 511.666666667 263 513 245 513 c 0
 227.666666667 513 211.333333333 511.666666667 196 509 c 128
 180.666666667 506.333333333 167.333333333 502.666666667 156 498 c 128
 144.666666667 493.333333333 135.833333333 487.833333333 129.5 481.5 c 128
 123.166666667 475.166666667 120 468.333333333 120 461 c 256
40 648 m 256
 40 659.333333333 45.1666666667 670.166666667 55.5 680.5 c 128
 65.8333333333 690.833333333 80.3333333333 699.666666667 99 707 c 128
 117.666666667 714.333333333 139.5 720.166666667 164.5 724.5 c 128
 189.5 728.833333333 216.333333333 731 245 731 c 0
 274.333333333 731 301.5 728.833333333 326.5 724.5 c 128
 351.5 720.166666667 373.166666667 714.333333333 391.5 707 c 128
 409.833333333 699.666666667 424.333333333 690.833333333 435 680.5 c 128
 445.666666667 670.166666667 451 659.333333333 451 648 c 256
 451 636.666666667 445.666666667 626 435 616 c 128
 424.333333333 606 409.833333333 597.166666667 391.5 589.5 c 128
 373.166666667 581.833333333 351.5 575.833333333 326.5 571.5 c 128
 301.5 567.166666667 274.333333333 565 245 565 c 0
 216.333333333 565 189.5 567.166666667 164.5 571.5 c 128
 139.5 575.833333333 117.666666667 581.833333333 99 589.5 c 128
 80.3333333333 597.166666667 65.8333333333 606 55.5 616 c 128
 45.1666666667 626 40 636.666666667 40 648 c 256
EndSplineSet
EndChar

StartChar: uni009A
Encoding: 154 154 161
Width: 480
Flags: HW
LayerCount: 2
Fore
SplineSet
40 85 m 0
 40 97 45.1666666667 108 55.5 118 c 128
 65.8333333333 128 80.3333333333 136.833333333 99 144.5 c 128
 117.666666667 152.166666667 139.5 158.166666667 164.5 162.5 c 128
 189.5 166.833333333 216.333333333 169 245 169 c 0
 274.333333333 169 301.5 166.833333333 326.5 162.5 c 128
 351.5 158.166666667 373.166666667 152.166666667 391.5 144.5 c 128
 409.833333333 136.833333333 424.333333333 128 435 118 c 128
 445.666666667 108 451 97 451 85 c 0
 451 73.6666666667 445.666666667 63 435 53 c 128
 424.333333333 43 409.833333333 34.3333333333 391.5 27 c 128
 373.166666667 19.6666666667 351.5 13.8333333333 326.5 9.5 c 128
 301.5 5.16666666667 274.333333333 3 245 3 c 0
 216.333333333 3 189.5 5.16666666667 164.5 9.5 c 128
 139.5 13.8333333333 117.666666667 19.6666666667 99 27 c 128
 80.3333333333 34.3333333333 65.8333333333 43 55.5 53 c 128
 45.1666666667 63 40 73.6666666667 40 85 c 0
120 85 m 256
 120 77.6666666667 123.166666667 70.8333333333 129.5 64.5 c 128
 135.833333333 58.1666666667 144.666666667 52.8333333333 156 48.5 c 128
 167.333333333 44.1666666667 180.666666667 40.6666666667 196 38 c 128
 211.333333333 35.3333333333 227.666666667 34 245 34 c 0
 263 34 279.5 35.3333333333 294.5 38 c 128
 309.5 40.6666666667 322.666666667 44.1666666667 334 48.5 c 128
 345.333333333 52.8333333333 354.166666667 58.1666666667 360.5 64.5 c 128
 366.833333333 70.8333333333 370 77.6666666667 370 85 c 256
 370 92.3333333333 366.833333333 99.1666666667 360.5 105.5 c 128
 354.166666667 111.833333333 345.333333333 117.333333333 334 122 c 128
 322.666666667 126.666666667 309.5 130.333333333 294.5 133 c 128
 279.5 135.666666667 263 137 245 137 c 0
 227.666666667 137 211.333333333 135.666666667 196 133 c 128
 180.666666667 130.333333333 167.333333333 126.666666667 156 122 c 128
 144.666666667 117.333333333 135.833333333 111.833333333 129.5 105.5 c 128
 123.166666667 99.1666666667 120 92.3333333333 120 85 c 256
40 272 m 0
 40 284 45.1666666667 295 55.5 305 c 128
 65.8333333333 315 80.3333333333 323.833333333 99 331.5 c 128
 117.666666667 339.166666667 139.5 345 164.5 349 c 128
 189.5 353 216.333333333 355 245 355 c 0
 274.333333333 355 301.5 353 326.5 349 c 128
 351.5 345 373.166666667 339.166666667 391.5 331.5 c 128
 409.833333333 323.833333333 424.333333333 315 435 305 c 128
 445.666666667 295 451 284 451 272 c 0
 451 260.666666667 445.666666667 250 435 240 c 128
 424.333333333 230 409.833333333 221.333333333 391.5 214 c 128
 373.166666667 206.666666667 351.5 200.666666667 326.5 196 c 128
 301.5 191.333333333 274.333333333 189 245 189 c 0
 216.333333333 189 189.5 191.333333333 164.5 196 c 128
 139.5 200.666666667 117.666666667 206.666666667 99 214 c 128
 80.3333333333 221.333333333 65.8333333333 230 55.5 240 c 128
 45.1666666667 250 40 260.666666667 40 272 c 0
40 461 m 256
 40 472.333333333 45.1666666667 483.166666667 55.5 493.5 c 128
 65.8333333333 503.833333333 80.3333333333 512.666666667 99 520 c 128
 117.666666667 527.333333333 139.5 533.166666667 164.5 537.5 c 128
 189.5 541.833333333 216.333333333 544 245 544 c 0
 274.333333333 544 301.5 541.833333333 326.5 537.5 c 128
 351.5 533.166666667 373.166666667 527.333333333 391.5 520 c 128
 409.833333333 512.666666667 424.333333333 503.833333333 435 493.5 c 128
 445.666666667 483.166666667 451 472.333333333 451 461 c 256
 451 449.666666667 445.666666667 439 435 429 c 128
 424.333333333 419 409.833333333 410.166666667 391.5 402.5 c 128
 373.166666667 394.833333333 351.5 388.833333333 326.5 384.5 c 128
 301.5 380.166666667 274.333333333 378 245 378 c 0
 216.333333333 378 189.5 380.166666667 164.5 384.5 c 128
 139.5 388.833333333 117.666666667 394.833333333 99 402.5 c 128
 80.3333333333 410.166666667 65.8333333333 419 55.5 429 c 128
 45.1666666667 439 40 449.666666667 40 461 c 256
120 461 m 256
 120 453.666666667 123.166666667 446.833333333 129.5 440.5 c 128
 135.833333333 434.166666667 144.666666667 428.666666667 156 424 c 128
 167.333333333 419.333333333 180.666666667 415.666666667 196 413 c 128
 211.333333333 410.333333333 227.666666667 409 245 409 c 0
 263 409 279.5 410.333333333 294.5 413 c 128
 309.5 415.666666667 322.666666667 419.333333333 334 424 c 128
 345.333333333 428.666666667 354.166666667 434.166666667 360.5 440.5 c 128
 366.833333333 446.833333333 370 453.666666667 370 461 c 256
 370 468.333333333 366.833333333 475.166666667 360.5 481.5 c 128
 354.166666667 487.833333333 345.333333333 493.333333333 334 498 c 128
 322.666666667 502.666666667 309.5 506.333333333 294.5 509 c 128
 279.5 511.666666667 263 513 245 513 c 0
 227.666666667 513 211.333333333 511.666666667 196 509 c 128
 180.666666667 506.333333333 167.333333333 502.666666667 156 498 c 128
 144.666666667 493.333333333 135.833333333 487.833333333 129.5 481.5 c 128
 123.166666667 475.166666667 120 468.333333333 120 461 c 256
40 648 m 256
 40 659.333333333 45.1666666667 670.166666667 55.5 680.5 c 128
 65.8333333333 690.833333333 80.3333333333 699.666666667 99 707 c 128
 117.666666667 714.333333333 139.5 720.166666667 164.5 724.5 c 128
 189.5 728.833333333 216.333333333 731 245 731 c 0
 274.333333333 731 301.5 728.833333333 326.5 724.5 c 128
 351.5 720.166666667 373.166666667 714.333333333 391.5 707 c 128
 409.833333333 699.666666667 424.333333333 690.833333333 435 680.5 c 128
 445.666666667 670.166666667 451 659.333333333 451 648 c 256
 451 636.666666667 445.666666667 626 435 616 c 128
 424.333333333 606 409.833333333 597.166666667 391.5 589.5 c 128
 373.166666667 581.833333333 351.5 575.833333333 326.5 571.5 c 128
 301.5 567.166666667 274.333333333 565 245 565 c 0
 216.333333333 565 189.5 567.166666667 164.5 571.5 c 128
 139.5 575.833333333 117.666666667 581.833333333 99 589.5 c 128
 80.3333333333 597.166666667 65.8333333333 606 55.5 616 c 128
 45.1666666667 626 40 636.666666667 40 648 c 256
EndSplineSet
EndChar

StartChar: uni009B
Encoding: 155 155 162
Width: 480
Flags: HW
LayerCount: 2
Fore
SplineSet
40 85 m 0
 40 97 45.1666666667 108 55.5 118 c 128
 65.8333333333 128 80.3333333333 136.833333333 99 144.5 c 128
 117.666666667 152.166666667 139.5 158.166666667 164.5 162.5 c 128
 189.5 166.833333333 216.333333333 169 245 169 c 0
 274.333333333 169 301.5 166.833333333 326.5 162.5 c 128
 351.5 158.166666667 373.166666667 152.166666667 391.5 144.5 c 128
 409.833333333 136.833333333 424.333333333 128 435 118 c 128
 445.666666667 108 451 97 451 85 c 0
 451 73.6666666667 445.666666667 63 435 53 c 128
 424.333333333 43 409.833333333 34.3333333333 391.5 27 c 128
 373.166666667 19.6666666667 351.5 13.8333333333 326.5 9.5 c 128
 301.5 5.16666666667 274.333333333 3 245 3 c 0
 216.333333333 3 189.5 5.16666666667 164.5 9.5 c 128
 139.5 13.8333333333 117.666666667 19.6666666667 99 27 c 128
 80.3333333333 34.3333333333 65.8333333333 43 55.5 53 c 128
 45.1666666667 63 40 73.6666666667 40 85 c 0
40 272 m 0
 40 284 45.1666666667 295 55.5 305 c 128
 65.8333333333 315 80.3333333333 323.833333333 99 331.5 c 128
 117.666666667 339.166666667 139.5 345 164.5 349 c 128
 189.5 353 216.333333333 355 245 355 c 0
 274.333333333 355 301.5 353 326.5 349 c 128
 351.5 345 373.166666667 339.166666667 391.5 331.5 c 128
 409.833333333 323.833333333 424.333333333 315 435 305 c 128
 445.666666667 295 451 284 451 272 c 0
 451 260.666666667 445.666666667 250 435 240 c 128
 424.333333333 230 409.833333333 221.333333333 391.5 214 c 128
 373.166666667 206.666666667 351.5 200.666666667 326.5 196 c 128
 301.5 191.333333333 274.333333333 189 245 189 c 0
 216.333333333 189 189.5 191.333333333 164.5 196 c 128
 139.5 200.666666667 117.666666667 206.666666667 99 214 c 128
 80.3333333333 221.333333333 65.8333333333 230 55.5 240 c 128
 45.1666666667 250 40 260.666666667 40 272 c 0
40 461 m 256
 40 472.333333333 45.1666666667 483.166666667 55.5 493.5 c 128
 65.8333333333 503.833333333 80.3333333333 512.666666667 99 520 c 128
 117.666666667 527.333333333 139.5 533.166666667 164.5 537.5 c 128
 189.5 541.833333333 216.333333333 544 245 544 c 0
 274.333333333 544 301.5 541.833333333 326.5 537.5 c 128
 351.5 533.166666667 373.166666667 527.333333333 391.5 520 c 128
 409.833333333 512.666666667 424.333333333 503.833333333 435 493.5 c 128
 445.666666667 483.166666667 451 472.333333333 451 461 c 256
 451 449.666666667 445.666666667 439 435 429 c 128
 424.333333333 419 409.833333333 410.166666667 391.5 402.5 c 128
 373.166666667 394.833333333 351.5 388.833333333 326.5 384.5 c 128
 301.5 380.166666667 274.333333333 378 245 378 c 0
 216.333333333 378 189.5 380.166666667 164.5 384.5 c 128
 139.5 388.833333333 117.666666667 394.833333333 99 402.5 c 128
 80.3333333333 410.166666667 65.8333333333 419 55.5 429 c 128
 45.1666666667 439 40 449.666666667 40 461 c 256
120 461 m 256
 120 453.666666667 123.166666667 446.833333333 129.5 440.5 c 128
 135.833333333 434.166666667 144.666666667 428.666666667 156 424 c 128
 167.333333333 419.333333333 180.666666667 415.666666667 196 413 c 128
 211.333333333 410.333333333 227.666666667 409 245 409 c 0
 263 409 279.5 410.333333333 294.5 413 c 128
 309.5 415.666666667 322.666666667 419.333333333 334 424 c 128
 345.333333333 428.666666667 354.166666667 434.166666667 360.5 440.5 c 128
 366.833333333 446.833333333 370 453.666666667 370 461 c 256
 370 468.333333333 366.833333333 475.166666667 360.5 481.5 c 128
 354.166666667 487.833333333 345.333333333 493.333333333 334 498 c 128
 322.666666667 502.666666667 309.5 506.333333333 294.5 509 c 128
 279.5 511.666666667 263 513 245 513 c 0
 227.666666667 513 211.333333333 511.666666667 196 509 c 128
 180.666666667 506.333333333 167.333333333 502.666666667 156 498 c 128
 144.666666667 493.333333333 135.833333333 487.833333333 129.5 481.5 c 128
 123.166666667 475.166666667 120 468.333333333 120 461 c 256
40 648 m 256
 40 659.333333333 45.1666666667 670.166666667 55.5 680.5 c 128
 65.8333333333 690.833333333 80.3333333333 699.666666667 99 707 c 128
 117.666666667 714.333333333 139.5 720.166666667 164.5 724.5 c 128
 189.5 728.833333333 216.333333333 731 245 731 c 0
 274.333333333 731 301.5 728.833333333 326.5 724.5 c 128
 351.5 720.166666667 373.166666667 714.333333333 391.5 707 c 128
 409.833333333 699.666666667 424.333333333 690.833333333 435 680.5 c 128
 445.666666667 670.166666667 451 659.333333333 451 648 c 256
 451 636.666666667 445.666666667 626 435 616 c 128
 424.333333333 606 409.833333333 597.166666667 391.5 589.5 c 128
 373.166666667 581.833333333 351.5 575.833333333 326.5 571.5 c 128
 301.5 567.166666667 274.333333333 565 245 565 c 0
 216.333333333 565 189.5 567.166666667 164.5 571.5 c 128
 139.5 575.833333333 117.666666667 581.833333333 99 589.5 c 128
 80.3333333333 597.166666667 65.8333333333 606 55.5 616 c 128
 45.1666666667 626 40 636.666666667 40 648 c 256
EndSplineSet
EndChar

StartChar: uni009C
Encoding: 156 156 163
Width: 480
Flags: HW
LayerCount: 2
Fore
SplineSet
40 85 m 0
 40 97 45.1666666667 108 55.5 118 c 128
 65.8333333333 128 80.3333333333 136.833333333 99 144.5 c 128
 117.666666667 152.166666667 139.5 158.166666667 164.5 162.5 c 128
 189.5 166.833333333 216.333333333 169 245 169 c 0
 274.333333333 169 301.5 166.833333333 326.5 162.5 c 128
 351.5 158.166666667 373.166666667 152.166666667 391.5 144.5 c 128
 409.833333333 136.833333333 424.333333333 128 435 118 c 128
 445.666666667 108 451 97 451 85 c 0
 451 73.6666666667 445.666666667 63 435 53 c 128
 424.333333333 43 409.833333333 34.3333333333 391.5 27 c 128
 373.166666667 19.6666666667 351.5 13.8333333333 326.5 9.5 c 128
 301.5 5.16666666667 274.333333333 3 245 3 c 0
 216.333333333 3 189.5 5.16666666667 164.5 9.5 c 128
 139.5 13.8333333333 117.666666667 19.6666666667 99 27 c 128
 80.3333333333 34.3333333333 65.8333333333 43 55.5 53 c 128
 45.1666666667 63 40 73.6666666667 40 85 c 0
120 85 m 256
 120 77.6666666667 123.166666667 70.8333333333 129.5 64.5 c 128
 135.833333333 58.1666666667 144.666666667 52.8333333333 156 48.5 c 128
 167.333333333 44.1666666667 180.666666667 40.6666666667 196 38 c 128
 211.333333333 35.3333333333 227.666666667 34 245 34 c 0
 263 34 279.5 35.3333333333 294.5 38 c 128
 309.5 40.6666666667 322.666666667 44.1666666667 334 48.5 c 128
 345.333333333 52.8333333333 354.166666667 58.1666666667 360.5 64.5 c 128
 366.833333333 70.8333333333 370 77.6666666667 370 85 c 256
 370 92.3333333333 366.833333333 99.1666666667 360.5 105.5 c 128
 354.166666667 111.833333333 345.333333333 117.333333333 334 122 c 128
 322.666666667 126.666666667 309.5 130.333333333 294.5 133 c 128
 279.5 135.666666667 263 137 245 137 c 0
 227.666666667 137 211.333333333 135.666666667 196 133 c 128
 180.666666667 130.333333333 167.333333333 126.666666667 156 122 c 128
 144.666666667 117.333333333 135.833333333 111.833333333 129.5 105.5 c 128
 123.166666667 99.1666666667 120 92.3333333333 120 85 c 256
40 272 m 0
 40 284 45.1666666667 295 55.5 305 c 128
 65.8333333333 315 80.3333333333 323.833333333 99 331.5 c 128
 117.666666667 339.166666667 139.5 345 164.5 349 c 128
 189.5 353 216.333333333 355 245 355 c 0
 274.333333333 355 301.5 353 326.5 349 c 128
 351.5 345 373.166666667 339.166666667 391.5 331.5 c 128
 409.833333333 323.833333333 424.333333333 315 435 305 c 128
 445.666666667 295 451 284 451 272 c 0
 451 260.666666667 445.666666667 250 435 240 c 128
 424.333333333 230 409.833333333 221.333333333 391.5 214 c 128
 373.166666667 206.666666667 351.5 200.666666667 326.5 196 c 128
 301.5 191.333333333 274.333333333 189 245 189 c 0
 216.333333333 189 189.5 191.333333333 164.5 196 c 128
 139.5 200.666666667 117.666666667 206.666666667 99 214 c 128
 80.3333333333 221.333333333 65.8333333333 230 55.5 240 c 128
 45.1666666667 250 40 260.666666667 40 272 c 0
120 272 m 256
 120 264.666666667 123.166666667 257.833333333 129.5 251.5 c 128
 135.833333333 245.166666667 144.666666667 239.666666667 156 235 c 128
 167.333333333 230.333333333 180.666666667 226.666666667 196 224 c 128
 211.333333333 221.333333333 227.666666667 220 245 220 c 0
 263 220 279.5 221.333333333 294.5 224 c 128
 309.5 226.666666667 322.666666667 230.333333333 334 235 c 128
 345.333333333 239.666666667 354.166666667 245.166666667 360.5 251.5 c 128
 366.833333333 257.833333333 370 264.666666667 370 272 c 256
 370 279.333333333 366.833333333 286.166666667 360.5 292.5 c 128
 354.166666667 298.833333333 345.333333333 304.333333333 334 309 c 128
 322.666666667 313.666666667 309.5 317.333333333 294.5 320 c 128
 279.5 322.666666667 263 324 245 324 c 0
 227.666666667 324 211.333333333 322.666666667 196 320 c 128
 180.666666667 317.333333333 167.333333333 313.666666667 156 309 c 128
 144.666666667 304.333333333 135.833333333 298.833333333 129.5 292.5 c 128
 123.166666667 286.166666667 120 279.333333333 120 272 c 256
40 461 m 256
 40 472.333333333 45.1666666667 483.166666667 55.5 493.5 c 128
 65.8333333333 503.833333333 80.3333333333 512.666666667 99 520 c 128
 117.666666667 527.333333333 139.5 533.166666667 164.5 537.5 c 128
 189.5 541.833333333 216.333333333 544 245 544 c 0
 274.333333333 544 301.5 541.833333333 326.5 537.5 c 128
 351.5 533.166666667 373.166666667 527.333333333 391.5 520 c 128
 409.833333333 512.666666667 424.333333333 503.833333333 435 493.5 c 128
 445.666666667 483.166666667 451 472.333333333 451 461 c 256
 451 449.666666667 445.666666667 439 435 429 c 128
 424.333333333 419 409.833333333 410.166666667 391.5 402.5 c 128
 373.166666667 394.833333333 351.5 388.833333333 326.5 384.5 c 128
 301.5 380.166666667 274.333333333 378 245 378 c 0
 216.333333333 378 189.5 380.166666667 164.5 384.5 c 128
 139.5 388.833333333 117.666666667 394.833333333 99 402.5 c 128
 80.3333333333 410.166666667 65.8333333333 419 55.5 429 c 128
 45.1666666667 439 40 449.666666667 40 461 c 256
40 648 m 256
 40 659.333333333 45.1666666667 670.166666667 55.5 680.5 c 128
 65.8333333333 690.833333333 80.3333333333 699.666666667 99 707 c 128
 117.666666667 714.333333333 139.5 720.166666667 164.5 724.5 c 128
 189.5 728.833333333 216.333333333 731 245 731 c 0
 274.333333333 731 301.5 728.833333333 326.5 724.5 c 128
 351.5 720.166666667 373.166666667 714.333333333 391.5 707 c 128
 409.833333333 699.666666667 424.333333333 690.833333333 435 680.5 c 128
 445.666666667 670.166666667 451 659.333333333 451 648 c 256
 451 636.666666667 445.666666667 626 435 616 c 128
 424.333333333 606 409.833333333 597.166666667 391.5 589.5 c 128
 373.166666667 581.833333333 351.5 575.833333333 326.5 571.5 c 128
 301.5 567.166666667 274.333333333 565 245 565 c 0
 216.333333333 565 189.5 567.166666667 164.5 571.5 c 128
 139.5 575.833333333 117.666666667 581.833333333 99 589.5 c 128
 80.3333333333 597.166666667 65.8333333333 606 55.5 616 c 128
 45.1666666667 626 40 636.666666667 40 648 c 256
EndSplineSet
EndChar

StartChar: uni009D
Encoding: 157 157 164
Width: 480
Flags: HW
LayerCount: 2
Fore
SplineSet
40 85 m 0
 40 97 45.1666666667 108 55.5 118 c 128
 65.8333333333 128 80.3333333333 136.833333333 99 144.5 c 128
 117.666666667 152.166666667 139.5 158.166666667 164.5 162.5 c 128
 189.5 166.833333333 216.333333333 169 245 169 c 0
 274.333333333 169 301.5 166.833333333 326.5 162.5 c 128
 351.5 158.166666667 373.166666667 152.166666667 391.5 144.5 c 128
 409.833333333 136.833333333 424.333333333 128 435 118 c 128
 445.666666667 108 451 97 451 85 c 0
 451 73.6666666667 445.666666667 63 435 53 c 128
 424.333333333 43 409.833333333 34.3333333333 391.5 27 c 128
 373.166666667 19.6666666667 351.5 13.8333333333 326.5 9.5 c 128
 301.5 5.16666666667 274.333333333 3 245 3 c 0
 216.333333333 3 189.5 5.16666666667 164.5 9.5 c 128
 139.5 13.8333333333 117.666666667 19.6666666667 99 27 c 128
 80.3333333333 34.3333333333 65.8333333333 43 55.5 53 c 128
 45.1666666667 63 40 73.6666666667 40 85 c 0
40 272 m 0
 40 284 45.1666666667 295 55.5 305 c 128
 65.8333333333 315 80.3333333333 323.833333333 99 331.5 c 128
 117.666666667 339.166666667 139.5 345 164.5 349 c 128
 189.5 353 216.333333333 355 245 355 c 0
 274.333333333 355 301.5 353 326.5 349 c 128
 351.5 345 373.166666667 339.166666667 391.5 331.5 c 128
 409.833333333 323.833333333 424.333333333 315 435 305 c 128
 445.666666667 295 451 284 451 272 c 0
 451 260.666666667 445.666666667 250 435 240 c 128
 424.333333333 230 409.833333333 221.333333333 391.5 214 c 128
 373.166666667 206.666666667 351.5 200.666666667 326.5 196 c 128
 301.5 191.333333333 274.333333333 189 245 189 c 0
 216.333333333 189 189.5 191.333333333 164.5 196 c 128
 139.5 200.666666667 117.666666667 206.666666667 99 214 c 128
 80.3333333333 221.333333333 65.8333333333 230 55.5 240 c 128
 45.1666666667 250 40 260.666666667 40 272 c 0
120 272 m 256
 120 264.666666667 123.166666667 257.833333333 129.5 251.5 c 128
 135.833333333 245.166666667 144.666666667 239.666666667 156 235 c 128
 167.333333333 230.333333333 180.666666667 226.666666667 196 224 c 128
 211.333333333 221.333333333 227.666666667 220 245 220 c 0
 263 220 279.5 221.333333333 294.5 224 c 128
 309.5 226.666666667 322.666666667 230.333333333 334 235 c 128
 345.333333333 239.666666667 354.166666667 245.166666667 360.5 251.5 c 128
 366.833333333 257.833333333 370 264.666666667 370 272 c 256
 370 279.333333333 366.833333333 286.166666667 360.5 292.5 c 128
 354.166666667 298.833333333 345.333333333 304.333333333 334 309 c 128
 322.666666667 313.666666667 309.5 317.333333333 294.5 320 c 128
 279.5 322.666666667 263 324 245 324 c 0
 227.666666667 324 211.333333333 322.666666667 196 320 c 128
 180.666666667 317.333333333 167.333333333 313.666666667 156 309 c 128
 144.666666667 304.333333333 135.833333333 298.833333333 129.5 292.5 c 128
 123.166666667 286.166666667 120 279.333333333 120 272 c 256
40 461 m 256
 40 472.333333333 45.1666666667 483.166666667 55.5 493.5 c 128
 65.8333333333 503.833333333 80.3333333333 512.666666667 99 520 c 128
 117.666666667 527.333333333 139.5 533.166666667 164.5 537.5 c 128
 189.5 541.833333333 216.333333333 544 245 544 c 0
 274.333333333 544 301.5 541.833333333 326.5 537.5 c 128
 351.5 533.166666667 373.166666667 527.333333333 391.5 520 c 128
 409.833333333 512.666666667 424.333333333 503.833333333 435 493.5 c 128
 445.666666667 483.166666667 451 472.333333333 451 461 c 256
 451 449.666666667 445.666666667 439 435 429 c 128
 424.333333333 419 409.833333333 410.166666667 391.5 402.5 c 128
 373.166666667 394.833333333 351.5 388.833333333 326.5 384.5 c 128
 301.5 380.166666667 274.333333333 378 245 378 c 0
 216.333333333 378 189.5 380.166666667 164.5 384.5 c 128
 139.5 388.833333333 117.666666667 394.833333333 99 402.5 c 128
 80.3333333333 410.166666667 65.8333333333 419 55.5 429 c 128
 45.1666666667 439 40 449.666666667 40 461 c 256
40 648 m 256
 40 659.333333333 45.1666666667 670.166666667 55.5 680.5 c 128
 65.8333333333 690.833333333 80.3333333333 699.666666667 99 707 c 128
 117.666666667 714.333333333 139.5 720.166666667 164.5 724.5 c 128
 189.5 728.833333333 216.333333333 731 245 731 c 0
 274.333333333 731 301.5 728.833333333 326.5 724.5 c 128
 351.5 720.166666667 373.166666667 714.333333333 391.5 707 c 128
 409.833333333 699.666666667 424.333333333 690.833333333 435 680.5 c 128
 445.666666667 670.166666667 451 659.333333333 451 648 c 256
 451 636.666666667 445.666666667 626 435 616 c 128
 424.333333333 606 409.833333333 597.166666667 391.5 589.5 c 128
 373.166666667 581.833333333 351.5 575.833333333 326.5 571.5 c 128
 301.5 567.166666667 274.333333333 565 245 565 c 0
 216.333333333 565 189.5 567.166666667 164.5 571.5 c 128
 139.5 575.833333333 117.666666667 581.833333333 99 589.5 c 128
 80.3333333333 597.166666667 65.8333333333 606 55.5 616 c 128
 45.1666666667 626 40 636.666666667 40 648 c 256
EndSplineSet
EndChar

StartChar: uni009E
Encoding: 158 158 165
Width: 480
Flags: HW
LayerCount: 2
Fore
SplineSet
40 85 m 0
 40 97 45.1666666667 108 55.5 118 c 128
 65.8333333333 128 80.3333333333 136.833333333 99 144.5 c 128
 117.666666667 152.166666667 139.5 158.166666667 164.5 162.5 c 128
 189.5 166.833333333 216.333333333 169 245 169 c 0
 274.333333333 169 301.5 166.833333333 326.5 162.5 c 128
 351.5 158.166666667 373.166666667 152.166666667 391.5 144.5 c 128
 409.833333333 136.833333333 424.333333333 128 435 118 c 128
 445.666666667 108 451 97 451 85 c 0
 451 73.6666666667 445.666666667 63 435 53 c 128
 424.333333333 43 409.833333333 34.3333333333 391.5 27 c 128
 373.166666667 19.6666666667 351.5 13.8333333333 326.5 9.5 c 128
 301.5 5.16666666667 274.333333333 3 245 3 c 0
 216.333333333 3 189.5 5.16666666667 164.5 9.5 c 128
 139.5 13.8333333333 117.666666667 19.6666666667 99 27 c 128
 80.3333333333 34.3333333333 65.8333333333 43 55.5 53 c 128
 45.1666666667 63 40 73.6666666667 40 85 c 0
120 85 m 256
 120 77.6666666667 123.166666667 70.8333333333 129.5 64.5 c 128
 135.833333333 58.1666666667 144.666666667 52.8333333333 156 48.5 c 128
 167.333333333 44.1666666667 180.666666667 40.6666666667 196 38 c 128
 211.333333333 35.3333333333 227.666666667 34 245 34 c 0
 263 34 279.5 35.3333333333 294.5 38 c 128
 309.5 40.6666666667 322.666666667 44.1666666667 334 48.5 c 128
 345.333333333 52.8333333333 354.166666667 58.1666666667 360.5 64.5 c 128
 366.833333333 70.8333333333 370 77.6666666667 370 85 c 256
 370 92.3333333333 366.833333333 99.1666666667 360.5 105.5 c 128
 354.166666667 111.833333333 345.333333333 117.333333333 334 122 c 128
 322.666666667 126.666666667 309.5 130.333333333 294.5 133 c 128
 279.5 135.666666667 263 137 245 137 c 0
 227.666666667 137 211.333333333 135.666666667 196 133 c 128
 180.666666667 130.333333333 167.333333333 126.666666667 156 122 c 128
 144.666666667 117.333333333 135.833333333 111.833333333 129.5 105.5 c 128
 123.166666667 99.1666666667 120 92.3333333333 120 85 c 256
40 272 m 0
 40 284 45.1666666667 295 55.5 305 c 128
 65.8333333333 315 80.3333333333 323.833333333 99 331.5 c 128
 117.666666667 339.166666667 139.5 345 164.5 349 c 128
 189.5 353 216.333333333 355 245 355 c 0
 274.333333333 355 301.5 353 326.5 349 c 128
 351.5 345 373.166666667 339.166666667 391.5 331.5 c 128
 409.833333333 323.833333333 424.333333333 315 435 305 c 128
 445.666666667 295 451 284 451 272 c 0
 451 260.666666667 445.666666667 250 435 240 c 128
 424.333333333 230 409.833333333 221.333333333 391.5 214 c 128
 373.166666667 206.666666667 351.5 200.666666667 326.5 196 c 128
 301.5 191.333333333 274.333333333 189 245 189 c 0
 216.333333333 189 189.5 191.333333333 164.5 196 c 128
 139.5 200.666666667 117.666666667 206.666666667 99 214 c 128
 80.3333333333 221.333333333 65.8333333333 230 55.5 240 c 128
 45.1666666667 250 40 260.666666667 40 272 c 0
40 461 m 256
 40 472.333333333 45.1666666667 483.166666667 55.5 493.5 c 128
 65.8333333333 503.833333333 80.3333333333 512.666666667 99 520 c 128
 117.666666667 527.333333333 139.5 533.166666667 164.5 537.5 c 128
 189.5 541.833333333 216.333333333 544 245 544 c 0
 274.333333333 544 301.5 541.833333333 326.5 537.5 c 128
 351.5 533.166666667 373.166666667 527.333333333 391.5 520 c 128
 409.833333333 512.666666667 424.333333333 503.833333333 435 493.5 c 128
 445.666666667 483.166666667 451 472.333333333 451 461 c 256
 451 449.666666667 445.666666667 439 435 429 c 128
 424.333333333 419 409.833333333 410.166666667 391.5 402.5 c 128
 373.166666667 394.833333333 351.5 388.833333333 326.5 384.5 c 128
 301.5 380.166666667 274.333333333 378 245 378 c 0
 216.333333333 378 189.5 380.166666667 164.5 384.5 c 128
 139.5 388.833333333 117.666666667 394.833333333 99 402.5 c 128
 80.3333333333 410.166666667 65.8333333333 419 55.5 429 c 128
 45.1666666667 439 40 449.666666667 40 461 c 256
40 648 m 256
 40 659.333333333 45.1666666667 670.166666667 55.5 680.5 c 128
 65.8333333333 690.833333333 80.3333333333 699.666666667 99 707 c 128
 117.666666667 714.333333333 139.5 720.166666667 164.5 724.5 c 128
 189.5 728.833333333 216.333333333 731 245 731 c 0
 274.333333333 731 301.5 728.833333333 326.5 724.5 c 128
 351.5 720.166666667 373.166666667 714.333333333 391.5 707 c 128
 409.833333333 699.666666667 424.333333333 690.833333333 435 680.5 c 128
 445.666666667 670.166666667 451 659.333333333 451 648 c 256
 451 636.666666667 445.666666667 626 435 616 c 128
 424.333333333 606 409.833333333 597.166666667 391.5 589.5 c 128
 373.166666667 581.833333333 351.5 575.833333333 326.5 571.5 c 128
 301.5 567.166666667 274.333333333 565 245 565 c 0
 216.333333333 565 189.5 567.166666667 164.5 571.5 c 128
 139.5 575.833333333 117.666666667 581.833333333 99 589.5 c 128
 80.3333333333 597.166666667 65.8333333333 606 55.5 616 c 128
 45.1666666667 626 40 636.666666667 40 648 c 256
EndSplineSet
EndChar

StartChar: uni009F
Encoding: 159 159 166
Width: 480
Flags: HW
LayerCount: 2
Fore
SplineSet
40 85 m 0
 40 97 45.1666666667 108 55.5 118 c 128
 65.8333333333 128 80.3333333333 136.833333333 99 144.5 c 128
 117.666666667 152.166666667 139.5 158.166666667 164.5 162.5 c 128
 189.5 166.833333333 216.333333333 169 245 169 c 0
 274.333333333 169 301.5 166.833333333 326.5 162.5 c 128
 351.5 158.166666667 373.166666667 152.166666667 391.5 144.5 c 128
 409.833333333 136.833333333 424.333333333 128 435 118 c 128
 445.666666667 108 451 97 451 85 c 0
 451 73.6666666667 445.666666667 63 435 53 c 128
 424.333333333 43 409.833333333 34.3333333333 391.5 27 c 128
 373.166666667 19.6666666667 351.5 13.8333333333 326.5 9.5 c 128
 301.5 5.16666666667 274.333333333 3 245 3 c 0
 216.333333333 3 189.5 5.16666666667 164.5 9.5 c 128
 139.5 13.8333333333 117.666666667 19.6666666667 99 27 c 128
 80.3333333333 34.3333333333 65.8333333333 43 55.5 53 c 128
 45.1666666667 63 40 73.6666666667 40 85 c 0
40 272 m 0
 40 284 45.1666666667 295 55.5 305 c 128
 65.8333333333 315 80.3333333333 323.833333333 99 331.5 c 128
 117.666666667 339.166666667 139.5 345 164.5 349 c 128
 189.5 353 216.333333333 355 245 355 c 0
 274.333333333 355 301.5 353 326.5 349 c 128
 351.5 345 373.166666667 339.166666667 391.5 331.5 c 128
 409.833333333 323.833333333 424.333333333 315 435 305 c 128
 445.666666667 295 451 284 451 272 c 0
 451 260.666666667 445.666666667 250 435 240 c 128
 424.333333333 230 409.833333333 221.333333333 391.5 214 c 128
 373.166666667 206.666666667 351.5 200.666666667 326.5 196 c 128
 301.5 191.333333333 274.333333333 189 245 189 c 0
 216.333333333 189 189.5 191.333333333 164.5 196 c 128
 139.5 200.666666667 117.666666667 206.666666667 99 214 c 128
 80.3333333333 221.333333333 65.8333333333 230 55.5 240 c 128
 45.1666666667 250 40 260.666666667 40 272 c 0
40 461 m 256
 40 472.333333333 45.1666666667 483.166666667 55.5 493.5 c 128
 65.8333333333 503.833333333 80.3333333333 512.666666667 99 520 c 128
 117.666666667 527.333333333 139.5 533.166666667 164.5 537.5 c 128
 189.5 541.833333333 216.333333333 544 245 544 c 0
 274.333333333 544 301.5 541.833333333 326.5 537.5 c 128
 351.5 533.166666667 373.166666667 527.333333333 391.5 520 c 128
 409.833333333 512.666666667 424.333333333 503.833333333 435 493.5 c 128
 445.666666667 483.166666667 451 472.333333333 451 461 c 256
 451 449.666666667 445.666666667 439 435 429 c 128
 424.333333333 419 409.833333333 410.166666667 391.5 402.5 c 128
 373.166666667 394.833333333 351.5 388.833333333 326.5 384.5 c 128
 301.5 380.166666667 274.333333333 378 245 378 c 0
 216.333333333 378 189.5 380.166666667 164.5 384.5 c 128
 139.5 388.833333333 117.666666667 394.833333333 99 402.5 c 128
 80.3333333333 410.166666667 65.8333333333 419 55.5 429 c 128
 45.1666666667 439 40 449.666666667 40 461 c 256
40 648 m 256
 40 659.333333333 45.1666666667 670.166666667 55.5 680.5 c 128
 65.8333333333 690.833333333 80.3333333333 699.666666667 99 707 c 128
 117.666666667 714.333333333 139.5 720.166666667 164.5 724.5 c 128
 189.5 728.833333333 216.333333333 731 245 731 c 0
 274.333333333 731 301.5 728.833333333 326.5 724.5 c 128
 351.5 720.166666667 373.166666667 714.333333333 391.5 707 c 128
 409.833333333 699.666666667 424.333333333 690.833333333 435 680.5 c 128
 445.666666667 670.166666667 451 659.333333333 451 648 c 256
 451 636.666666667 445.666666667 626 435 616 c 128
 424.333333333 606 409.833333333 597.166666667 391.5 589.5 c 128
 373.166666667 581.833333333 351.5 575.833333333 326.5 571.5 c 128
 301.5 567.166666667 274.333333333 565 245 565 c 0
 216.333333333 565 189.5 567.166666667 164.5 571.5 c 128
 139.5 575.833333333 117.666666667 581.833333333 99 589.5 c 128
 80.3333333333 597.166666667 65.8333333333 606 55.5 616 c 128
 45.1666666667 626 40 636.666666667 40 648 c 256
EndSplineSet
EndChar
